<?xml version="1.0" encoding="UTF-8" standalone="no"?>
<!-- Created with Inkscape (http://www.inkscape.org/) -->

<svg
   xmlns:dc="http://purl.org/dc/elements/1.1/"
   xmlns:cc="http://creativecommons.org/ns#"
   xmlns:rdf="http://www.w3.org/1999/02/22-rdf-syntax-ns#"
   xmlns:svg="http://www.w3.org/2000/svg"
   xmlns="http://www.w3.org/2000/svg"
   xmlns:sodipodi="http://sodipodi.sourceforge.net/DTD/sodipodi-0.dtd"
   xmlns:inkscape="http://www.inkscape.org/namespaces/inkscape"
   id="svg848"
   version="1.1"
   viewBox="0 0 1000 600"
   height="600mm"
   width="1000mm"
   inkscape:version="0.92.2 (5c3e80d, 2017-08-06)"
   sodipodi:docname="12box.svg">
  <sodipodi:namedview
     inkscape:window-maximized="1"
     inkscape:window-y="0"
     inkscape:window-x="0"
     inkscape:window-height="1007"
     inkscape:window-width="1920"
     width="1000mm"
     units="mm"
     showgrid="false"
     inkscape:current-layer="g4143"
     inkscape:document-units="mm"
     inkscape:cy="1679.0326"
     inkscape:cx="2806.2391"
     inkscape:zoom="57.926187"
     inkscape:pageshadow="2"
     inkscape:pageopacity="0.0"
     borderopacity="1.0"
     bordercolor="#666666"
     pagecolor="#ffffff"
     id="base" />
  <defs
     id="defs842" />
  <metadata
     id="metadata845">
    <rdf:RDF>
      <cc:Work
         rdf:about="">
        <dc:format>image/svg+xml</dc:format>
        <dc:type
           rdf:resource="http://purl.org/dc/dcmitype/StillImage" />
        <dc:title></dc:title>
      </cc:Work>
    </rdf:RDF>
  </metadata>
  <g
     transform="translate(0,303)"
     id="layer1"
     inkscape:groupmode="layer"
     inkscape:label="Layer 1" />
  <g
     id="g1437"
     inkscape:groupmode="layer"
     inkscape:label="newlayer" />
  <g
     inkscape:label="newlayer"
     inkscape:groupmode="layer"
     id="g1601" />
  <g
     id="g1803"
     inkscape:groupmode="layer"
     inkscape:label="newlayer" />
  <g
     inkscape:label="newlayer"
     inkscape:groupmode="layer"
     id="g1920" />
  <g
     id="g2020"
     inkscape:groupmode="layer"
     inkscape:label="newlayer" />
  <g
     inkscape:label="newlayer"
     inkscape:groupmode="layer"
     id="g2149" />
  <g
     id="g2393"
     inkscape:groupmode="layer"
     inkscape:label="newlayer" />
  <g
     id="g2650">
    <g
       id="g4015"
       transform="translate(-456.61328,-2.9232605)">
      <g
         id="g3978"
         transform="matrix(0.63993438,0,0,1.0009231,258.47914,-0.15852323)">
        <path
           id="path2989"
           inkscape:label="part"
           style="fill:none;stroke:#000000;stroke-width:1"
           d="m 715.36675,63.661098 v 10.376923 h 5 V 63.661098 h -5"
           inkscape:connector-curvature="0" />
        <path
           id="path2993"
           inkscape:label="part"
           style="fill:none;stroke:#000000;stroke-width:1"
           d="m 715.36675,84.238021 v 10.376924 h 5 V 84.238021 h -5"
           inkscape:connector-curvature="0" />
        <path
           id="path2997"
           inkscape:label="part"
           style="fill:none;stroke:#000000;stroke-width:1"
           d="m 715.36675,104.81494 v 10.37692 h 5 v -10.37692 h -5"
           inkscape:connector-curvature="0" />
        <path
           id="path3001"
           inkscape:label="part"
           style="fill:none;stroke:#000000;stroke-width:1"
           d="m 715.36675,125.39186 v 10.37693 h 5 v -10.37693 h -5"
           inkscape:connector-curvature="0" />
        <path
           id="path3005"
           inkscape:label="part"
           style="fill:none;stroke:#000000;stroke-width:1"
           d="m 715.36675,145.96879 v 10.37692 h 5 v -10.37692 h -5"
           inkscape:connector-curvature="0" />
        <path
           id="path3009"
           inkscape:label="part"
           style="fill:none;stroke:#000000;stroke-width:1"
           d="m 715.36675,166.54571 v 10.37692 h 5 v -10.37692 h -5"
           inkscape:connector-curvature="0" />
        <path
           id="path3013"
           inkscape:label="part"
           style="fill:none;stroke:#000000;stroke-width:1"
           d="m 715.36675,187.12263 v 10.37692 h 5 v -10.37692 h -5"
           inkscape:connector-curvature="0" />
        <path
           id="path3017"
           inkscape:label="part"
           style="fill:none;stroke:#000000;stroke-width:1"
           d="m 715.36675,207.69955 v 10.37693 h 5 v -10.37693 h -5"
           inkscape:connector-curvature="0" />
        <path
           id="path3021"
           inkscape:label="part"
           style="fill:none;stroke:#000000;stroke-width:1"
           d="m 715.36675,228.27648 v 10.37692 h 5 v -10.37692 h -5"
           inkscape:connector-curvature="0" />
        <path
           id="path3025"
           inkscape:label="part"
           style="fill:none;stroke:#000000;stroke-width:1"
           d="m 715.36675,248.8534 v 10.37692 h 5 V 248.8534 h -5"
           inkscape:connector-curvature="0" />
        <path
           id="path3029"
           inkscape:label="part"
           style="fill:none;stroke:#000000;stroke-width:1"
           d="m 715.36675,269.43032 v 10.37693 h 5 v -10.37693 h -5"
           inkscape:connector-curvature="0" />
      </g>
      <g
         id="g3965"
         transform="matrix(0.63993438,0,0,1.0009231,215.27126,-0.15852323)">
        <path
           id="path2991"
           inkscape:label="part"
           style="fill:none;stroke:#000000;stroke-width:1"
           d="m 595.36675,63.661098 v 10.376923 h 5 V 63.661098 h -5"
           inkscape:connector-curvature="0" />
        <path
           id="path2995"
           inkscape:label="part"
           style="fill:none;stroke:#000000;stroke-width:1"
           d="m 595.36675,84.238021 v 10.376924 h 5 V 84.238021 h -5"
           inkscape:connector-curvature="0" />
        <path
           id="path2999"
           inkscape:label="part"
           style="fill:none;stroke:#000000;stroke-width:1"
           d="m 595.36675,104.81494 v 10.37692 h 5 v -10.37692 h -5"
           inkscape:connector-curvature="0" />
        <path
           id="path3003"
           inkscape:label="part"
           style="fill:none;stroke:#000000;stroke-width:1"
           d="m 595.36675,125.39186 v 10.37693 h 5 v -10.37693 h -5"
           inkscape:connector-curvature="0" />
        <path
           id="path3007"
           inkscape:label="part"
           style="fill:none;stroke:#000000;stroke-width:1"
           d="m 595.36675,145.96879 v 10.37692 h 5 v -10.37692 h -5"
           inkscape:connector-curvature="0" />
        <path
           id="path3011"
           inkscape:label="part"
           style="fill:none;stroke:#000000;stroke-width:1"
           d="m 595.36675,166.54571 v 10.37692 h 5 v -10.37692 h -5"
           inkscape:connector-curvature="0" />
        <path
           id="path3015"
           inkscape:label="part"
           style="fill:none;stroke:#000000;stroke-width:1"
           d="m 595.36675,187.12263 v 10.37692 h 5 v -10.37692 h -5"
           inkscape:connector-curvature="0" />
        <path
           id="path3019"
           inkscape:label="part"
           style="fill:none;stroke:#000000;stroke-width:1"
           d="m 595.36675,207.69955 v 10.37693 h 5 v -10.37693 h -5"
           inkscape:connector-curvature="0" />
        <path
           id="path3023"
           inkscape:label="part"
           style="fill:none;stroke:#000000;stroke-width:1"
           d="m 595.36675,228.27648 v 10.37692 h 5 v -10.37692 h -5"
           inkscape:connector-curvature="0" />
        <path
           id="path3027"
           inkscape:label="part"
           style="fill:none;stroke:#000000;stroke-width:1"
           d="m 595.36675,248.8534 v 10.37692 h 5 V 248.8534 h -5"
           inkscape:connector-curvature="0" />
        <path
           id="path3031"
           inkscape:label="part"
           style="fill:none;stroke:#000000;stroke-width:1"
           d="m 595.36675,269.43032 v 10.37693 h 5 v -10.37693 h -5"
           inkscape:connector-curvature="0" />
      </g>
      <g
         id="g3984">
        <path
           id="path2983"
           inkscape:label="part"
           style="fill:none;stroke:#000000;stroke-width:1"
           d="m 480.36675,47.984175 h 5.7333 v -5 h 10.2 v 5 h 10.6334 v -5 h 10.2 v 5 h 10.6333 v -5 h 10.2 v 5 h 10.6333 v -5 h 10.2 v 5 h 10.6334 v -5 h 10.2 v 5 h 10.6333 v -5 h 10.2 v 5 h 10.6333 v -5 h 10.2 v 5 h 10.6334 v -5 h 10.2 v 5 h 10.6333 v -5 h 10.2 v 5 h 10.6333 v -5 h 10.2 v 5 h 10.6334 v -5 h 10.2 v 5 h 10.6333 v -5 h 10.2 v 5 h 10.6333 v -5 h 10.2 v 5 h 10.6334 v -5 h 10.2 v 5 h 10.6333 v -5 h 10.2 v 5 h 10.6333 v -5 h 10.2 v 5 h 10.6334 v -5 h 10.2 v 5 h 5.7333"
           inkscape:connector-curvature="0" />
        <path
           id="path3037"
           inkscape:label="part"
           style="fill:none;stroke:#000000;stroke-width:1"
           d="m 835.36675,47.984175 v 5.476923 h 5 v 10.2 h -5 v 10.376923 h 5 v 10.2 h -5 v 10.376924 h 5 v 10.199995 h -5 v 10.37692 h 5 v 10.2 h -5 v 10.37693 h 5 v 10.2 h -5 v 10.37692 h 5 v 10.2 h -5 v 10.37692 h 5 v 10.2 h -5 v 10.37692 h 5 v 10.2 h -5 v 10.37693 h 5 v 10.2 h -5 v 10.37692 h 5 v 10.2 h -5 v 10.37692 h 5 v 10.2 h -5 v 10.37693 h 5 v 10.2 h -5 v 5.47692"
           inkscape:connector-curvature="0" />
        <path
           id="path3039"
           inkscape:label="part"
           style="fill:none;stroke:#000000;stroke-width:1"
           d="m 835.36675,295.48417 h -5.7333 v 0 h -10.2 v 0 h -10.6334 v 0 h -10.2 v 0 h -10.6333 v 0 h -10.2 v 0 h -10.6333 v 0 h -10.2 v 0 h -10.6334 v 0 h -10.2 v 0 h -10.6333 v 0 h -10.2 v 0 h -10.6333 v 0 h -10.2 v 0 h -10.6334 v 0 h -10.2 v 0 h -10.6333 v 0 h -10.2 v 0 h -10.6333 v 0 h -10.2 v 0 h -10.6334 v 0 h -10.2 v 0 h -10.6333 v 0 h -10.2 v 0 h -10.6333 v 0 h -10.2 v 0 h -10.6334 v 0 h -10.2 v 0 h -10.6333 v 0 h -10.2 v 0 h -10.6333 v 0 h -10.2 v 0 h -10.6334 v 0 h -10.2 v 0 h -5.7333"
           inkscape:connector-curvature="0" />
        <path
           id="path3041"
           inkscape:label="part"
           style="fill:none;stroke:#000000;stroke-width:1"
           d="m 480.36675,295.48417 v -5.47692 h -5 v -10.2 h 5 v -10.37693 h -5 v -10.2 h 5 V 248.8534 h -5 v -10.2 h 5 v -10.37692 h -5 v -10.2 h 5 v -10.37693 h -5 v -10.2 h 5 v -10.37692 h -5 v -10.2 h 5 v -10.37692 h -5 v -10.2 h 5 v -10.37692 h -5 v -10.2 h 5 v -10.37693 h -5 v -10.2 h 5 v -10.37692 h -5 V 94.614945 h 5 V 84.238021 h -5 v -10.2 h 5 V 63.661098 h -5 v -10.2 h 5 v -5.476923"
           inkscape:connector-curvature="0" />
      </g>
    </g>
    <g
       id="g3245"
       transform="translate(-469,317)">
      <path
         inkscape:connector-curvature="0"
         d="m 470,50 h 5.93333 v 5 h 9.8 v -5 h 11.03334 v 5 h 9.8 V 50 H 517.6 v 5 h 9.8 v -5 h 11.03333 v 5 h 9.8 v -5 h 11.03334 v 5 h 9.8 V 50 H 580.1 v 5 h 9.8 v -5 h 11.03333 v 5 h 9.8 v -5 h 11.03334 v 5 h 9.8 V 50 H 642.6 v 5 h 9.8 v -5 h 11.03333 v 5 h 9.8 v -5 h 11.03334 v 5 h 9.8 V 50 H 705.1 v 5 h 9.8 v -5 h 11.03333 v 5 h 9.8 v -5 h 11.03334 v 5 h 9.8 V 50 H 767.6 v 5 h 9.8 v -5 h 11.03333 v 5 h 9.8 v -5 h 11.03334 v 5 h 9.8 v -5 l 5.93333,5e-6"
         style="fill:none;stroke:#000000;stroke-width:1"
         inkscape:label="part"
         id="path3075"
         sodipodi:nodetypes="cccccccccccccccccccccccccccccccccccccccccccccccccccccccccccccccccccccc" />
      <path
         inkscape:connector-curvature="0"
         d="m 825,50 c 0,77.33333 0,154.66667 0,232"
         style="fill:none;stroke:#000000;stroke-width:1"
         inkscape:label="part"
         id="path3077"
         sodipodi:nodetypes="cc" />
      <path
         inkscape:connector-curvature="0"
         d="m 825,282 h -5.93333 v -5 h -9.8 v 5 h -11.03334 v -5 h -9.8 v 5 H 777.4 v -5 h -9.8 v 5 h -11.03333 v -5 h -9.8 v 5 h -11.03334 v -5 h -9.8 v 5 H 714.9 v -5 h -9.8 v 5 h -11.03333 v -5 h -9.8 v 5 h -11.03334 v -5 h -9.8 v 5 H 652.4 v -5 h -9.8 v 5 h -11.03333 v -5 h -9.8 v 5 h -11.03334 v -5 h -9.8 v 5 H 589.9 v -5 h -9.8 v 5 h -11.03333 v -5 h -9.8 v 5 h -11.03334 v -5 h -9.8 v 5 H 527.4 v -5 h -9.8 v 5 h -11.03333 v -5 h -9.8 v 5 h -11.03334 v -5 h -9.8 v 5 H 470"
         style="fill:none;stroke:#000000;stroke-width:1"
         inkscape:label="part"
         id="path3079"
         sodipodi:nodetypes="cccccccccccccccccccccccccccccccccccccccccccccccccccccccccccccccccccccc" />
      <path
         inkscape:connector-curvature="0"
         d="m 470,282 c 0,-77.33333 0,-154.66666 0,-231.999995"
         style="fill:none;stroke:#000000;stroke-width:1"
         inkscape:label="part"
         id="path3081"
         sodipodi:nodetypes="cc" />
    </g>
    <g
       id="g4180">
      <g
         id="g4143"
         transform="matrix(0.63993438,0,0,1.0009231,267.52877,-0.15761634)">
        <path
           id="path3089"
           inkscape:label="part"
           style="fill:none;stroke:#000000;stroke-width:1"
           d="m 740.50002,62.67693 v 10.37692 h 5 V 62.67693 h -5"
           inkscape:connector-curvature="0" />
        <path
           id="path3093"
           inkscape:label="part"
           style="fill:none;stroke:#000000;stroke-width:1"
           d="m 740.50002,83.25385 v 10.37692 h 5 V 83.25385 h -5"
           inkscape:connector-curvature="0" />
        <path
           id="path3097"
           inkscape:label="part"
           style="fill:none;stroke:#000000;stroke-width:1"
           d="m 740.50002,103.83077 v 10.37692 h 5 v -10.37692 h -5"
           inkscape:connector-curvature="0" />
        <path
           id="path3101"
           inkscape:label="part"
           style="fill:none;stroke:#000000;stroke-width:1"
           d="m 740.50002,124.40769 v 10.37693 h 5 v -10.37693 h -5"
           inkscape:connector-curvature="0" />
        <path
           id="path3105"
           inkscape:label="part"
           style="fill:none;stroke:#000000;stroke-width:1"
           d="m 740.50002,144.98462 v 10.37692 h 5 v -10.37692 h -5"
           inkscape:connector-curvature="0" />
        <path
           id="path3109"
           inkscape:label="part"
           style="fill:none;stroke:#000000;stroke-width:1"
           d="m 740.50002,165.56154 v 10.37692 h 5 v -10.37692 h -5"
           inkscape:connector-curvature="0" />
        <path
           id="path3113"
           inkscape:label="part"
           style="fill:none;stroke:#000000;stroke-width:1"
           d="m 740.50002,186.13846 v 10.37692 h 5 v -10.37692 h -5"
           inkscape:connector-curvature="0" />
        <path
           id="path3117"
           inkscape:label="part"
           style="fill:none;stroke:#000000;stroke-width:1"
           d="m 740.50002,206.71538 v 10.37693 h 5 v -10.37693 h -5"
           inkscape:connector-curvature="0" />
        <path
           id="path3121"
           inkscape:label="part"
           style="fill:none;stroke:#000000;stroke-width:1"
           d="m 740.50002,227.29231 v 10.37692 h 5 v -10.37692 h -5"
           inkscape:connector-curvature="0" />
        <path
           id="path3125"
           inkscape:label="part"
           style="fill:none;stroke:#000000;stroke-width:1"
           d="m 740.50002,247.86923 v 10.37692 h 5 v -10.37692 h -5"
           inkscape:connector-curvature="0" />
        <path
           id="path3129"
           inkscape:label="part"
           style="fill:none;stroke:#000000;stroke-width:1"
           d="m 740.50002,268.44615 v 10.37693 h 5 v -10.37693 h -5"
           inkscape:connector-curvature="0" />
      </g>
      <g
         id="g4130"
         transform="matrix(0.63993438,0,0,1.0009231,224.32089,-0.15761634)">
        <path
           id="path3091"
           inkscape:label="part"
           style="fill:none;stroke:#000000;stroke-width:1"
           d="m 620.50003,62.67693 v 10.37692 h 5 V 62.67693 h -5"
           inkscape:connector-curvature="0" />
        <path
           id="path3095"
           inkscape:label="part"
           style="fill:none;stroke:#000000;stroke-width:1"
           d="m 620.50003,83.25385 v 10.37692 h 5 V 83.25385 h -5"
           inkscape:connector-curvature="0" />
        <path
           id="path3099"
           inkscape:label="part"
           style="fill:none;stroke:#000000;stroke-width:1"
           d="m 620.50003,103.83077 v 10.37692 h 5 v -10.37692 h -5"
           inkscape:connector-curvature="0" />
        <path
           id="path3103"
           inkscape:label="part"
           style="fill:none;stroke:#000000;stroke-width:1"
           d="m 620.50003,124.40769 v 10.37693 h 5 v -10.37693 h -5"
           inkscape:connector-curvature="0" />
        <path
           id="path3107"
           inkscape:label="part"
           style="fill:none;stroke:#000000;stroke-width:1"
           d="m 620.50003,144.98462 v 10.37692 h 5 v -10.37692 h -5"
           inkscape:connector-curvature="0" />
        <path
           id="path3111"
           inkscape:label="part"
           style="fill:none;stroke:#000000;stroke-width:1"
           d="m 620.50003,165.56154 v 10.37692 h 5 v -10.37692 h -5"
           inkscape:connector-curvature="0" />
        <path
           id="path3115"
           inkscape:label="part"
           style="fill:none;stroke:#000000;stroke-width:1"
           d="m 620.50003,186.13846 v 10.37692 h 5 v -10.37692 h -5"
           inkscape:connector-curvature="0" />
        <path
           id="path3119"
           inkscape:label="part"
           style="fill:none;stroke:#000000;stroke-width:1"
           d="m 620.50003,206.71538 v 10.37693 h 5 v -10.37693 h -5"
           inkscape:connector-curvature="0" />
        <path
           id="path3123"
           inkscape:label="part"
           style="fill:none;stroke:#000000;stroke-width:1"
           d="m 620.50003,227.29231 v 10.37692 h 5 v -10.37692 h -5"
           inkscape:connector-curvature="0" />
        <path
           id="path3127"
           inkscape:label="part"
           style="fill:none;stroke:#000000;stroke-width:1"
           d="m 620.50003,247.86923 v 10.37692 h 5 v -10.37692 h -5"
           inkscape:connector-curvature="0" />
        <path
           id="path3131"
           inkscape:label="part"
           style="fill:none;stroke:#000000;stroke-width:1"
           d="m 620.50003,268.44615 v 10.37693 h 5 v -10.37693 h -5"
           inkscape:connector-curvature="0" />
      </g>
      <g
         id="g4149">
        <path
           id="path3083"
           inkscape:label="part"
           style="fill:none;stroke:#000000;stroke-width:1"
           d="m 505.5,47 h 5.7333 v 0 h 10.2 v 0 h 10.6334 v 0 h 10.19999 v 0 h 10.6333 v 0 h 10.2 v 0 h 10.6333 v 0 h 10.2 v 0 h 10.6334 v 0 h 10.2 v 0 h 10.63334 v 0 h 10.2 v 0 h 10.6333 v 0 h 10.2 v 0 h 10.6334 v 0 h 10.2 v 0 h 10.6333 v 0 h 10.19999 v 0 h 10.6333 v 0 h 10.2 v 0 h 10.6334 v 0 h 10.2 v 0 h 10.6333 v 0 h 10.2 v 0 h 10.63329 v 0 h 10.2 v 0 h 10.6334 v 0 h 10.2 v 0 h 10.6333 v 0 h 10.2 v 0 h 10.6333 v 0 h 10.19999 v 0 h 10.6334 v 0 h 10.2 v 0 H 860.5"
           inkscape:connector-curvature="0" />
        <path
           id="path3137"
           inkscape:label="part"
           style="fill:none;stroke:#000000;stroke-width:1"
           d="m 860.5,47 v 5.47693 h 5 v 10.2 h -5 v 10.37692 h 5 v 10.2 h -5 v 10.37692 h 5 v 10.2 h -5 v 10.37692 h 5 v 10.2 h -5 v 10.37693 h 5 v 10.2 h -5 v 10.37692 h 5 v 10.2 h -5 v 10.37692 h 5 v 10.2 h -5 v 10.37692 h 5 v 10.2 h -5 v 10.37693 h 5 v 10.2 h -5 v 10.37692 h 5 v 10.2 h -5 v 10.37692 h 5 v 10.2 h -5 v 10.37693 h 5 v 10.2 h -5 V 294.5"
           inkscape:connector-curvature="0" />
        <path
           id="path3139"
           inkscape:label="part"
           style="fill:none;stroke:#000000;stroke-width:1"
           d="m 860.5,294.5 h -5.7333 v 5 h -10.2 v -5 h -10.6334 v 5 h -10.19999 v -5 h -10.6333 v 5 h -10.2 v -5 h -10.6333 v 5 h -10.2 v -5 h -10.6334 v 5 h -10.2 v -5 h -10.63329 v 5 h -10.2 v -5 h -10.6333 v 5 h -10.2 v -5 h -10.6334 v 5 h -10.2 v -5 h -10.6333 v 5 h -10.19999 v -5 h -10.6333 v 5 h -10.2 v -5 h -10.6334 v 5 h -10.2 v -5 h -10.6333 v 5 h -10.2 v -5 h -10.63334 v 5 h -10.2 v -5 h -10.6334 v 5 h -10.2 v -5 h -10.6333 v 5 h -10.2 v -5 h -10.6333 v 5 H 532.0667 v -5 h -10.6334 v 5 h -10.2 v -5 H 505.5"
           inkscape:connector-curvature="0" />
        <path
           id="path3141"
           inkscape:label="part"
           style="fill:none;stroke:#000000;stroke-width:1"
           d="m 505.5,294.5 v -5.47692 h -5 v -10.2 h 5 v -10.37693 h -5 v -10.2 h 5 v -10.37692 h -5 v -10.2 h 5 v -10.37692 h -5 v -10.2 h 5 v -10.37693 h -5 v -10.2 h 5 v -10.37692 h -5 v -10.2 h 5 v -10.37692 h -5 v -10.2 h 5 v -10.37692 h -5 v -10.2 h 5 v -10.37693 h -5 v -10.2 h 5 v -10.37692 h -5 v -10.2 h 5 V 83.25385 h -5 v -10.2 h 5 V 62.67693 h -5 v -10.2 h 5 V 47"
           inkscape:connector-curvature="0" />
      </g>
    </g>
  </g>
  <g
     inkscape:label="newlayer"
     inkscape:groupmode="layer"
     id="g2877" />
  <g
     id="g3145"
     inkscape:groupmode="layer"
     inkscape:label="newlayer" />
</svg>
