<?xml version="1.0" encoding="UTF-8" standalone="no"?>
<!-- Created with Inkscape (http://www.inkscape.org/) -->

<svg
   xmlns:dc="http://purl.org/dc/elements/1.1/"
   xmlns:cc="http://creativecommons.org/ns#"
   xmlns:rdf="http://www.w3.org/1999/02/22-rdf-syntax-ns#"
   xmlns:svg="http://www.w3.org/2000/svg"
   xmlns="http://www.w3.org/2000/svg"
   xmlns:sodipodi="http://sodipodi.sourceforge.net/DTD/sodipodi-0.dtd"
   xmlns:inkscape="http://www.inkscape.org/namespaces/inkscape"
   width="1000mm"
   height="600mm"
   viewBox="0 0 1000 600"
   version="1.1"
   id="svg1402"
   inkscape:version="0.92.2 (5c3e80d, 2017-08-06)"
   sodipodi:docname="2box-5mm.svg">
  <defs
     id="defs1396" />
  <sodipodi:namedview
     id="base"
     pagecolor="#ffffff"
     bordercolor="#666666"
     borderopacity="1.0"
     inkscape:pageopacity="0.0"
     inkscape:pageshadow="2"
     inkscape:zoom="0.35"
     inkscape:cx="1934.2857"
     inkscape:cy="1131.4286"
     inkscape:document-units="mm"
     inkscape:current-layer="layer1"
     showgrid="false"
     inkscape:window-width="1920"
     inkscape:window-height="1007"
     inkscape:window-x="0"
     inkscape:window-y="0"
     inkscape:window-maximized="1" />
  <metadata
     id="metadata1399">
    <rdf:RDF>
      <cc:Work
         rdf:about="">
        <dc:format>image/svg+xml</dc:format>
        <dc:type
           rdf:resource="http://purl.org/dc/dcmitype/StillImage" />
        <dc:title></dc:title>
      </cc:Work>
    </rdf:RDF>
  </metadata>
  <g
     inkscape:label="Layer 1"
     inkscape:groupmode="layer"
     id="layer1"
     transform="translate(0,303)">
    <g
       transform="translate(-1.8273857,-296.67262)"
       id="g6976">
      <path
         id="path6879"
         inkscape:label="part"
         style="fill:none;stroke:#000000;stroke-width:1"
         d="m 597,6 h 4.9 V 1 h 10.2 v 5 h 9.8 V 1 h 10.2 v 5 h 9.8 V 1 h 10.2 v 5 h 4.9"
         inkscape:connector-curvature="0" />
      <path
         id="path6881"
         inkscape:label="part"
         style="fill:none;stroke:#000000;stroke-width:1"
         d="m 657,6 v 5.476923 h 5 v 10.2 h -5 v 10.376923 h 5 v 10.2 h -5 v 10.376923 h 5 v 10.2 h -5 v 10.376923 h 5 v 10.2 h -5 v 10.376923 h 5 v 10.200005 h -5 v 10.37692 h 5 v 10.2 h -5 v 10.37692 h 5 v 10.2 h -5 v 10.37692 h 5 v 10.2 h -5 v 10.37693 h 5 v 10.2 h -5 v 10.37692 h 5 v 10.2 h -5 v 10.37692 h 5 v 10.2 h -5 v 10.37693 h 5 v 10.2 h -5 V 253.5"
         inkscape:connector-curvature="0" />
      <path
         id="path6883"
         inkscape:label="part"
         style="fill:none;stroke:#000000;stroke-width:1"
         d="m 657,253.5 h -4.9 v 0 h -10.2 v 0 h -9.8 v 0 h -10.2 v 0 h -9.8 v 0 h -10.2 v 0 H 597"
         inkscape:connector-curvature="0" />
      <path
         id="path6885"
         inkscape:label="part"
         style="fill:none;stroke:#000000;stroke-width:1"
         d="m 597,253.5 v -5.47692 h -5 v -10.2 h 5 v -10.37693 h -5 v -10.2 h 5 v -10.37692 h -5 v -10.2 h 5 v -10.37692 h -5 v -10.2 h 5 v -10.37693 h -5 v -10.2 h 5 v -10.37692 h -5 v -10.2 h 5 v -10.37692 h -5 v -10.2 h 5 v -10.37692 h -5 V 93.784615 h 5 V 83.407692 h -5 v -10.2 h 5 V 62.830769 h -5 v -10.2 h 5 V 42.253846 h -5 v -10.2 h 5 V 21.676923 h -5 v -10.2 h 5 V 6"
         inkscape:connector-curvature="0" />
    </g>
    <g
       transform="translate(4.1726143,-296.67262)"
       id="g6958">
      <path
         id="path6887"
         inkscape:label="part"
         style="fill:none;stroke:#000000;stroke-width:1"
         d="m 78,1 h 5.676923 v 5 h 9.8 V 1 h 10.776927 v 5 h 9.8 V 1 h 10.77692 v 5 h 9.8 V 1 h 10.77692 v 5 h 9.8 V 1 h 10.77693 v 5 h 9.8 V 1 h 10.77692 v 5 h 9.8 V 1 h 10.77692 v 5 h 9.8 V 1 h 10.77692 v 5 h 9.8 V 1 h 10.77693 v 5 h 9.8 V 1 h 10.77692 v 5 h 9.8 V 1 h 10.77692 v 5 h 9.8 V 1 h 10.77693 v 5 h 9.8 V 1 H 325.5"
         inkscape:connector-curvature="0" />
      <path
         id="path6889"
         inkscape:label="part"
         style="fill:none;stroke:#000000;stroke-width:1"
         d="m 325.5,1 v 10.066667 h 5 v 10.2 h -5 v 9.966666 h 5 v 10.2 h -5 V 51.4 h 5 v 10.2 h -5 v 9.966667 h 5 v 10.2 h -5 v 9.966666 h 5 v 10.199997 h -5 V 111.9 h 5 v 10.2 h -5 v 9.96667 h 5 v 10.2 h -5 v 9.96666 h 5 v 10.2 h -5 V 172.4 h 5 v 10.2 h -5 v 9.96667 h 5 v 10.2 h -5 v 9.96666 h 5 v 10.2 h -5 V 233"
         inkscape:connector-curvature="0" />
      <path
         id="path6891"
         inkscape:label="part"
         style="fill:none;stroke:#000000;stroke-width:1"
         d="m 325.5,233 h -5.67692 v -5 h -9.8 v 5 h -10.77693 v -5 h -9.8 v 5 h -10.77692 v -5 h -9.8 v 5 h -10.77692 v -5 h -9.8 v 5 h -10.77693 v -5 h -9.8 v 5 h -10.77692 v -5 h -9.8 v 5 h -10.77692 v -5 h -9.8 v 5 h -10.77692 v -5 h -9.8 v 5 h -10.77693 v -5 h -9.8 v 5 h -10.77692 v -5 h -9.8 v 5 h -10.77692 v -5 h -9.8 v 5 H 93.476923 v -5 h -9.8 v 5 H 78"
         inkscape:connector-curvature="0" />
      <path
         id="path6893"
         inkscape:label="part"
         style="fill:none;stroke:#000000;stroke-width:1"
         d="m 78,233 v -10.06667 0 -10.2 0 -9.96666 0 -10.2 0 -9.96667 0 -10.2 0 -9.96667 0 -10.2 0 -9.96666 0 -10.2 0 -9.96667 0 -10.2 0 -9.96667 0 -10.199997 0 -9.966666 0 -10.2 0 V 61.6 v 0 -10.2 0 -9.966667 0 -10.2 0 -9.966666 0 -10.2 0 V 1"
         inkscape:connector-curvature="0" />
    </g>
    <g
       transform="translate(3.6726143,-296.67262)"
       id="g6964">
      <path
         id="path6895"
         inkscape:label="part"
         style="fill:none;stroke:#000000;stroke-width:1"
         d="m 337.5,1 h 5.67692 v 5 h 9.8 V 1 h 10.77693 v 5 h 9.8 V 1 h 10.77692 v 5 h 9.8 V 1 h 10.77692 v 5 h 9.8 V 1 h 10.77693 v 5 h 9.8 V 1 h 10.77692 v 5 h 9.8 V 1 h 10.77692 v 5 h 9.8 V 1 h 10.77692 v 5 h 9.8 V 1 h 10.77693 v 5 h 9.8 V 1 h 10.77692 v 5 h 9.8 V 1 h 10.77692 v 5 h 9.8 V 1 h 10.77693 v 5 h 9.8 V 1 H 585"
         inkscape:connector-curvature="0" />
      <path
         id="path6897"
         inkscape:label="part"
         style="fill:none;stroke:#000000;stroke-width:1"
         d="m 585,1 v 10.066667 0 10.2 0 9.966666 0 10.2 0 9.966667 0 10.2 0 9.966667 0 10.2 0 9.966666 0 10.199997 0 9.96667 0 10.2 0 9.96667 0 10.2 0 9.96666 0 10.2 0 9.96667 0 10.2 0 9.96667 0 10.2 0 9.96666 0 10.2 0 V 233"
         inkscape:connector-curvature="0" />
      <path
         id="path6899"
         inkscape:label="part"
         style="fill:none;stroke:#000000;stroke-width:1"
         d="m 585,233 h -5.67692 v -5 h -9.8 v 5 h -10.77693 v -5 h -9.8 v 5 h -10.77692 v -5 h -9.8 v 5 h -10.77692 v -5 h -9.8 v 5 h -10.77693 v -5 h -9.8 v 5 h -10.77692 v -5 h -9.8 v 5 h -10.77692 v -5 h -9.8 v 5 h -10.77692 v -5 h -9.8 v 5 h -10.77693 v -5 h -9.8 v 5 h -10.77692 v -5 h -9.8 v 5 h -10.77692 v -5 h -9.8 v 5 h -10.77693 v -5 h -9.8 v 5 H 337.5"
         inkscape:connector-curvature="0" />
      <path
         id="path6901"
         inkscape:label="part"
         style="fill:none;stroke:#000000;stroke-width:1"
         d="m 337.5,233 v -10.06667 h -5 v -10.2 h 5 v -9.96666 h -5 v -10.2 h 5 V 182.6 h -5 v -10.2 h 5 v -9.96667 h -5 v -10.2 h 5 v -9.96666 h -5 v -10.2 h 5 V 122.1 h -5 v -10.2 h 5 v -9.96667 h -5 V 91.733333 h 5 v -9.966666 h -5 v -10.2 h 5 V 61.6 h -5 V 51.4 h 5 v -9.966667 h -5 v -10.2 h 5 v -9.966666 h -5 v -10.2 h 5 V 1"
         inkscape:connector-curvature="0" />
    </g>
    <g
       transform="translate(9.6726143,-296.67262)"
       id="g6952">
      <path
         id="path6903"
         inkscape:label="part"
         style="fill:none;stroke:#000000;stroke-width:1"
         d="m 1,1 h 10.1 v 5 h 9.8 V 1 h 10.2 v 5 h 9.8 V 1 h 10.2 v 5 h 9.8 V 1 H 71"
         inkscape:connector-curvature="0" />
      <path
         id="path6905"
         inkscape:label="part"
         style="fill:none;stroke:#000000;stroke-width:1"
         d="m 71,1 v 10.266667 h -5 v 9.8 h 5 v 10.366666 h -5 v 9.8 h 5 V 51.6 h -5 v 9.8 h 5 v 10.366667 h -5 v 9.8 h 5 v 10.366666 h -5 v 9.799997 h 5 V 112.1 h -5 v 9.8 h 5 v 10.36667 h -5 v 9.8 h 5 v 10.36666 h -5 v 9.8 h 5 V 172.6 h -5 v 9.8 h 5 v 10.36667 h -5 v 9.8 h 5 v 10.36666 h -5 v 9.8 h 5 V 233"
         inkscape:connector-curvature="0" />
      <path
         id="path6907"
         inkscape:label="part"
         style="fill:none;stroke:#000000;stroke-width:1"
         d="M 71,233 H 60.9 v -5 h -9.8 v 5 H 40.9 v -5 h -9.8 v 5 H 20.9 v -5 h -9.8 v 5 H 1"
         inkscape:connector-curvature="0" />
      <path
         id="path6909"
         inkscape:label="part"
         style="fill:none;stroke:#000000;stroke-width:1"
         d="m 1,233 v -10.26667 h 5 v -9.8 H 1 v -10.36666 h 5 v -9.8 H 1 V 182.4 h 5 v -9.8 H 1 v -10.36667 h 5 v -9.8 H 1 v -10.36666 h 5 v -9.8 H 1 V 121.9 h 5 v -9.8 H 1 V 101.73333 H 6 V 91.933333 H 1 V 81.566667 h 5 v -9.8 H 1 V 61.4 H 6 V 51.6 H 1 V 41.233333 h 5 v -9.8 H 1 V 21.066667 h 5 v -9.8 H 1 V 1"
         inkscape:connector-curvature="0" />
    </g>
    <g
       transform="translate(-2.3273857,-301.67262)"
       id="g6970">
      <path
         id="path6911"
         inkscape:label="part"
         style="fill:none;stroke:#000000;stroke-width:1"
         d="m 669,6 h 4.9 v 0 h 10.2 v 0 h 9.8 v 0 h 10.2 v 0 h 9.8 v 0 h 10.2 v 0 h 4.9"
         inkscape:connector-curvature="0" />
      <path
         id="path6913"
         inkscape:label="part"
         style="fill:none;stroke:#000000;stroke-width:1"
         d="m 729,6 v 5.476923 h 5 v 10.2 h -5 v 10.376923 h 5 v 10.2 h -5 v 10.376923 h 5 v 10.2 h -5 v 10.376923 h 5 v 10.2 h -5 v 10.376923 h 5 v 10.200005 h -5 v 10.37692 h 5 v 10.2 h -5 v 10.37692 h 5 v 10.2 h -5 v 10.37692 h 5 v 10.2 h -5 v 10.37693 h 5 v 10.2 h -5 v 10.37692 h 5 v 10.2 h -5 v 10.37692 h 5 v 10.2 h -5 v 10.37693 h 5 v 10.2 h -5 V 253.5"
         inkscape:connector-curvature="0" />
      <path
         id="path6915"
         inkscape:label="part"
         style="fill:none;stroke:#000000;stroke-width:1"
         d="m 729,253.5 h -4.9 v 5 h -10.2 v -5 h -9.8 v 5 h -10.2 v -5 h -9.8 v 5 h -10.2 v -5 H 669"
         inkscape:connector-curvature="0" />
      <path
         id="path6917"
         inkscape:label="part"
         style="fill:none;stroke:#000000;stroke-width:1"
         d="m 669,253.5 v -5.47692 h -5 v -10.2 h 5 v -10.37693 h -5 v -10.2 h 5 v -10.37692 h -5 v -10.2 h 5 v -10.37692 h -5 v -10.2 h 5 v -10.37693 h -5 v -10.2 h 5 v -10.37692 h -5 v -10.2 h 5 v -10.37692 h -5 v -10.2 h 5 v -10.37692 h -5 V 93.784615 h 5 V 83.407692 h -5 v -10.2 h 5 V 62.830769 h -5 v -10.2 h 5 V 42.253846 h -5 v -10.2 h 5 V 21.676923 h -5 v -10.2 h 5 V 6"
         inkscape:connector-curvature="0" />
    </g>
  </g>
</svg>
