<?xml version="1.0" encoding="UTF-8" standalone="no"?>
<!-- Created with Inkscape (http://www.inkscape.org/) -->

<svg
   xmlns:dc="http://purl.org/dc/elements/1.1/"
   xmlns:cc="http://creativecommons.org/ns#"
   xmlns:rdf="http://www.w3.org/1999/02/22-rdf-syntax-ns#"
   xmlns:svg="http://www.w3.org/2000/svg"
   xmlns="http://www.w3.org/2000/svg"
   xmlns:sodipodi="http://sodipodi.sourceforge.net/DTD/sodipodi-0.dtd"
   xmlns:inkscape="http://www.inkscape.org/namespaces/inkscape"
   width="230mm"
   height="252mm"
   viewBox="0 0 230 252"
   version="1.1"
   id="svg2995"
   sodipodi:docname="2box-gravur.svg"
   inkscape:version="0.92.2 (5c3e80d, 2017-08-06)">
  <defs
     id="defs2989" />
  <sodipodi:namedview
     id="base"
     pagecolor="#ffffff"
     bordercolor="#666666"
     borderopacity="1.0"
     inkscape:pageopacity="0.0"
     inkscape:pageshadow="2"
     inkscape:zoom="0.98994949"
     inkscape:cx="572.73582"
     inkscape:cy="379.80565"
     inkscape:document-units="mm"
     inkscape:current-layer="svg2995"
     showgrid="false"
     inkscape:window-width="1920"
     inkscape:window-height="1007"
     inkscape:window-x="0"
     inkscape:window-y="0"
     inkscape:window-maximized="1" />
  <metadata
     id="metadata2992">
    <rdf:RDF>
      <cc:Work
         rdf:about="">
        <dc:format>image/svg+xml</dc:format>
        <dc:type
           rdf:resource="http://purl.org/dc/dcmitype/StillImage" />
        <dc:title></dc:title>
      </cc:Work>
    </rdf:RDF>
  </metadata>
  <g
     inkscape:label="Layer 1"
     inkscape:groupmode="layer"
     id="layer1"
     transform="translate(0,-45)" />
  <g
     aria-label="µPOC

Line Card Transporter"
     style="font-style:normal;font-weight:normal;font-size:10.58333302px;line-height:1.25;font-family:sans-serif;text-align:center;letter-spacing:0px;word-spacing:0px;text-anchor:middle;fill:none;fill-opacity:1;stroke:#000000;stroke-width:0.165;stroke-opacity:1;stroke-miterlimit:4;stroke-dasharray:none"
     id="text5408">
    <path
       d="m 98.148313,76.98194 v -9.587012 h 1.141015 v 4.316016 q 0,0.89917 0.427881,1.358056 0.427881,0.458887 1.265041,0.458887 0.91777,0 1.37666,-0.520898 0.46509,-0.520899 0.46509,-1.562696 v -4.049365 h 1.14101 v 5.34541 q 0,0.37207 0.10542,0.551904 0.11162,0.173633 0.34107,0.173633 0.0558,0 0.15503,-0.03101 0.0992,-0.03721 0.27285,-0.111621 v 0.917774 q -0.25425,0.142627 -0.48369,0.21084 -0.22325,0.06821 -0.44029,0.06821 -0.42788,0 -0.68213,-0.241845 -0.25424,-0.241846 -0.34726,-0.73794 -0.31006,0.489893 -0.76275,0.73794 -0.44648,0.241845 -1.0542,0.241845 -0.63251,0 -1.078999,-0.241845 -0.440284,-0.241846 -0.700733,-0.725537 v 3.429248 z"
       style="font-style:normal;font-variant:normal;font-weight:normal;font-stretch:normal;font-size:12.69999981px;font-family:sans-serif;-inkscape-font-specification:sans-serif;text-align:center;text-anchor:middle;stroke-width:0.165;fill:none;fill-opacity:1;stroke:#000000;stroke-opacity:1;stroke-miterlimit:4;stroke-dasharray:none"
       id="path5439" />
    <path
       d="m 107.65471,66.111286 v 3.478857 h 1.5751 q 0.87436,0 1.35185,-0.452686 0.47749,-0.452685 0.47749,-1.289843 0,-0.830957 -0.47749,-1.283643 -0.47749,-0.452685 -1.35185,-0.452685 z m -1.25264,-1.029395 h 2.82774 q 1.55649,0 2.35024,0.706934 0.79995,0.700732 0.79995,2.058789 0,1.370459 -0.79995,2.071191 -0.79375,0.700732 -2.35024,0.700732 h -1.5751 v 3.720703 h -1.25264 z"
       style="font-style:normal;font-variant:normal;font-weight:normal;font-stretch:normal;font-size:12.69999981px;font-family:sans-serif;-inkscape-font-specification:sans-serif;text-align:center;text-anchor:middle;stroke-width:0.165;fill:none;fill-opacity:1;stroke:#000000;stroke-opacity:1;stroke-miterlimit:4;stroke-dasharray:none"
       id="path5441" />
    <path
       d="m 117.82463,65.931452 q -1.36426,0 -2.17041,1.016992 -0.79995,1.016992 -0.79995,2.771924 0,1.74873 0.79995,2.765722 0.80615,1.016992 2.17041,1.016992 1.36426,0 2.15801,-1.016992 0.79995,-1.016992 0.79995,-2.765722 0,-1.754932 -0.79995,-2.771924 -0.79375,-1.016992 -2.15801,-1.016992 z m 0,-1.016993 q 1.94717,0 3.11299,1.308448 1.16582,1.302246 1.16582,3.497461 0,2.189013 -1.16582,3.49746 -1.16582,1.302246 -3.11299,1.302246 -1.95337,0 -3.12539,-1.302246 -1.16582,-1.302246 -1.16582,-3.49746 0,-2.195215 1.16582,-3.497461 1.17202,-1.308448 3.12539,-1.308448 z"
       style="font-style:normal;font-variant:normal;font-weight:normal;font-stretch:normal;font-size:12.69999981px;font-family:sans-serif;-inkscape-font-specification:sans-serif;text-align:center;text-anchor:middle;stroke-width:0.165;fill:none;fill-opacity:1;stroke:#000000;stroke-opacity:1;stroke-miterlimit:4;stroke-dasharray:none"
       id="path5443" />
    <path
       d="m 130.99592,65.795026 v 1.320849 q -0.63252,-0.589111 -1.35186,-0.880566 -0.71313,-0.291455 -1.51928,-0.291455 -1.5875,0 -2.43086,0.973584 -0.84336,0.967383 -0.84336,2.80293 0,1.829345 0.84336,2.802929 0.84336,0.967383 2.43086,0.967383 0.80615,0 1.51928,-0.291455 0.71934,-0.291455 1.35186,-0.880567 v 1.308448 q -0.65733,0.446484 -1.39526,0.669726 -0.73174,0.223242 -1.5503,0.223242 -2.10219,0 -3.31142,-1.283642 -1.20923,-1.289844 -1.20923,-3.516064 0,-2.232422 1.20923,-3.516065 1.20923,-1.289844 3.31142,-1.289844 0.83096,0 1.5627,0.223243 0.73794,0.217041 1.38286,0.657324 z"
       style="font-style:normal;font-variant:normal;font-weight:normal;font-stretch:normal;font-size:12.69999981px;font-family:sans-serif;-inkscape-font-specification:sans-serif;text-align:center;text-anchor:middle;stroke-width:0.165;fill:none;fill-opacity:1;stroke:#000000;stroke-opacity:1;stroke-miterlimit:4;stroke-dasharray:none"
       id="path5445" />
    <path
       d="m 47.131272,94.186057 h 1.252637 v 8.204153 h 4.508252 v 1.0542 h -5.760889 z"
       style="font-style:normal;font-variant:normal;font-weight:normal;font-stretch:normal;font-size:12.69999981px;font-family:sans-serif;-inkscape-font-specification:sans-serif;text-align:center;text-anchor:middle;stroke-width:0.165;fill:none;fill-opacity:1;stroke:#000000;stroke-opacity:1;stroke-miterlimit:4;stroke-dasharray:none"
       id="path5447" />
    <path
       d="m 54.150999,96.499094 h 1.141016 v 6.945316 h -1.141016 z m 0,-2.703711 h 1.141016 v 1.444873 h -1.141016 z"
       style="font-style:normal;font-variant:normal;font-weight:normal;font-stretch:normal;font-size:12.69999981px;font-family:sans-serif;-inkscape-font-specification:sans-serif;text-align:center;text-anchor:middle;stroke-width:0.165;fill:none;fill-opacity:1;stroke:#000000;stroke-opacity:1;stroke-miterlimit:4;stroke-dasharray:none"
       id="path5449" />
    <path
       d="m 63.446555,99.252414 v 4.191996 H 62.30554 v -4.154789 q 0,-0.985986 -0.384473,-1.475878 -0.384473,-0.489893 -1.153418,-0.489893 -0.923975,0 -1.457275,0.589111 -0.533301,0.589112 -0.533301,1.606104 v 3.925345 h -1.147217 v -6.945316 h 1.147217 v 1.079004 q 0.409277,-0.626318 0.961182,-0.936377 0.558105,-0.310059 1.283642,-0.310059 1.196826,0 1.810742,0.744141 0.613916,0.73794 0.613916,2.176611 z"
       style="font-style:normal;font-variant:normal;font-weight:normal;font-stretch:normal;font-size:12.69999981px;font-family:sans-serif;-inkscape-font-specification:sans-serif;text-align:center;text-anchor:middle;stroke-width:0.165;fill:none;fill-opacity:1;stroke:#000000;stroke-opacity:1;stroke-miterlimit:4;stroke-dasharray:none"
       id="path5451" />
    <path
       d="M 71.675511,99.686496 V 100.2446 H 66.42932 q 0.07441,1.17822 0.706934,1.79834 0.63872,0.61392 1.773535,0.61392 0.657324,0 1.27124,-0.16123 0.620117,-0.16123 1.227832,-0.48369 v 1.079 q -0.613916,0.26045 -1.258838,0.39687 -0.644922,0.13643 -1.308447,0.13643 -1.661914,0 -2.635498,-0.96738 -0.967383,-0.96739 -0.967383,-2.6169 0,-1.705319 0.917773,-2.703708 0.923975,-1.00459 2.48667,-1.00459 1.401465,0 2.213819,0.905372 0.818554,0.899169 0.818554,2.449462 z m -1.141015,-0.334863 q -0.0124,-0.936377 -0.5271,-1.494482 -0.508496,-0.558106 -1.351855,-0.558106 -0.954981,0 -1.53169,0.539502 -0.570508,0.539502 -0.657324,1.519287 z"
       style="font-style:normal;font-variant:normal;font-weight:normal;font-stretch:normal;font-size:12.69999981px;font-family:sans-serif;-inkscape-font-specification:sans-serif;text-align:center;text-anchor:middle;stroke-width:0.165;fill:none;fill-opacity:1;stroke:#000000;stroke-opacity:1;stroke-miterlimit:4;stroke-dasharray:none"
       id="path5453" />
    <path
       d="m 84.573948,94.899192 v 1.320849 Q 83.941429,95.63093 83.222093,95.339475 82.508958,95.04802 81.702806,95.04802 q -1.5875,0 -2.43086,0.973584 -0.843359,0.967383 -0.843359,2.80293 0,1.829346 0.843359,2.802926 0.84336,0.96739 2.43086,0.96739 0.806152,0 1.519287,-0.29146 0.719336,-0.29145 1.351855,-0.88057 v 1.30845 q -0.657324,0.44649 -1.395264,0.66973 -0.731738,0.22324 -1.550293,0.22324 -2.102197,0 -3.311425,-1.28364 -1.209229,-1.28985 -1.209229,-3.516066 0,-2.232422 1.209229,-3.516065 1.209228,-1.289844 3.311425,-1.289844 0.830957,0 1.562696,0.223243 0.737939,0.217041 1.382861,0.657324 z"
       style="font-style:normal;font-variant:normal;font-weight:normal;font-stretch:normal;font-size:12.69999981px;font-family:sans-serif;-inkscape-font-specification:sans-serif;text-align:center;text-anchor:middle;stroke-width:0.165;fill:none;fill-opacity:1;stroke:#000000;stroke-opacity:1;stroke-miterlimit:4;stroke-dasharray:none"
       id="path5455" />
    <path
       d="m 89.627902,99.953147 q -1.382861,0 -1.916162,0.316263 -0.5333,0.31626 -0.5333,1.079 0,0.60772 0.396875,0.96738 0.403076,0.35347 1.091406,0.35347 0.948779,0 1.519287,-0.66973 0.576709,-0.67592 0.576709,-1.79214 v -0.254243 z m 2.27583,-0.471289 v 3.962552 h -1.141015 v -1.0542 q -0.390674,0.63252 -0.973584,0.93637 -0.58291,0.29766 -1.42627,0.29766 -1.066601,0 -1.699121,-0.59531 -0.626318,-0.60152 -0.626318,-1.60611 0,-1.17202 0.781348,-1.767329 0.787548,-0.595313 2.344043,-0.595313 h 1.599902 v -0.111621 q 0,-0.787549 -0.520899,-1.21543 -0.514697,-0.434082 -1.451074,-0.434082 -0.595312,0 -1.159619,0.142627 -0.564307,0.142627 -1.085205,0.427881 v -1.054199 q 0.626318,-0.241846 1.21543,-0.359668 0.589111,-0.124024 1.147216,-0.124024 1.506885,0 2.251026,0.781348 0.74414,0.781348 0.74414,2.368848 z"
       style="font-style:normal;font-variant:normal;font-weight:normal;font-stretch:normal;font-size:12.69999981px;font-family:sans-serif;-inkscape-font-specification:sans-serif;text-align:center;text-anchor:middle;stroke-width:0.165;fill:none;fill-opacity:1;stroke:#000000;stroke-opacity:1;stroke-miterlimit:4;stroke-dasharray:none"
       id="path5457" />
    <path
       d="m 98.28474,97.565696 q -0.192236,-0.111621 -0.42168,-0.161231 -0.223242,-0.05581 -0.496094,-0.05581 -0.967382,0 -1.488281,0.632519 -0.514697,0.626319 -0.514697,1.804541 v 3.658695 h -1.147217 v -6.945316 h 1.147217 v 1.079004 q 0.359668,-0.63252 0.936377,-0.936377 0.576709,-0.310059 1.401465,-0.310059 0.117822,0 0.260449,0.0186 0.142627,0.0124 0.31626,0.04341 z"
       style="font-style:normal;font-variant:normal;font-weight:normal;font-stretch:normal;font-size:12.69999981px;font-family:sans-serif;-inkscape-font-specification:sans-serif;text-align:center;text-anchor:middle;stroke-width:0.165;fill:none;fill-opacity:1;stroke:#000000;stroke-opacity:1;stroke-miterlimit:4;stroke-dasharray:none"
       id="path5459" />
    <path
       d="m 103.84099,97.553293 v -3.75791 h 1.14102 v 9.649027 h -1.14102 v -1.0418 q -0.35967,0.62012 -0.91157,0.92397 -0.5457,0.29766 -1.31465,0.29766 -1.25884,0 -2.052588,-1.00459 -0.787549,-1.00459 -0.787549,-2.641699 0,-1.637109 0.787549,-2.641699 0.793748,-1.00459 2.052588,-1.00459 0.76895,0 1.31465,0.303858 0.5519,0.297656 0.91157,0.917773 z m -3.888134,2.424658 q 0,1.258839 0.514694,1.978179 0.5209,0.71313 1.42627,0.71313 0.90537,0 1.42627,-0.71313 0.5209,-0.71934 0.5209,-1.978179 0,-1.258837 -0.5209,-1.971972 -0.5209,-0.719336 -1.42627,-0.719336 -0.90537,0 -1.42627,0.719336 -0.514694,0.713135 -0.514694,1.971972 z"
       style="font-style:normal;font-variant:normal;font-weight:normal;font-stretch:normal;font-size:12.69999981px;font-family:sans-serif;-inkscape-font-specification:sans-serif;text-align:center;text-anchor:middle;stroke-width:0.165;fill:none;fill-opacity:1;stroke:#000000;stroke-opacity:1;stroke-miterlimit:4;stroke-dasharray:none"
       id="path5461" />
    <path
       d="m 110.14138,94.186057 h 7.83208 v 1.054199 h -3.28662 v 8.204154 H 113.428 v -8.204154 h -3.28662 z"
       style="font-style:normal;font-variant:normal;font-weight:normal;font-stretch:normal;font-size:12.69999981px;font-family:sans-serif;-inkscape-font-specification:sans-serif;text-align:center;text-anchor:middle;stroke-width:0.165;fill:none;fill-opacity:1;stroke:#000000;stroke-opacity:1;stroke-miterlimit:4;stroke-dasharray:none"
       id="path5463" />
    <path
       d="m 121.30349,97.565696 q -0.19224,-0.111621 -0.42168,-0.161231 -0.22324,-0.05581 -0.49609,-0.05581 -0.96739,0 -1.48829,0.632519 -0.51469,0.626319 -0.51469,1.804541 v 3.658695 h -1.14722 v -6.945316 h 1.14722 v 1.079004 q 0.35967,-0.63252 0.93637,-0.936377 0.57671,-0.310059 1.40147,-0.310059 0.11782,0 0.26045,0.0186 0.14263,0.0124 0.31626,0.04341 z"
       style="font-style:normal;font-variant:normal;font-weight:normal;font-stretch:normal;font-size:12.69999981px;font-family:sans-serif;-inkscape-font-specification:sans-serif;text-align:center;text-anchor:middle;stroke-width:0.165;fill:none;fill-opacity:1;stroke:#000000;stroke-opacity:1;stroke-miterlimit:4;stroke-dasharray:none"
       id="path5465" />
    <path
       d="m 125.66911,99.953147 q -1.38286,0 -1.91616,0.316263 -0.5333,0.31626 -0.5333,1.079 0,0.60772 0.39687,0.96738 0.40308,0.35347 1.09141,0.35347 0.94878,0 1.51929,-0.66973 0.57671,-0.67592 0.57671,-1.79214 v -0.254243 z m 2.27583,-0.471289 v 3.962552 h -1.14101 v -1.0542 q -0.39068,0.63252 -0.97359,0.93637 -0.58291,0.29766 -1.42627,0.29766 -1.0666,0 -1.69912,-0.59531 -0.62632,-0.60152 -0.62632,-1.60611 0,-1.17202 0.78135,-1.767329 0.78755,-0.595313 2.34404,-0.595313 h 1.59991 v -0.111621 q 0,-0.787549 -0.5209,-1.21543 -0.5147,-0.434082 -1.45108,-0.434082 -0.59531,0 -1.15961,0.142627 -0.56431,0.142627 -1.08521,0.427881 v -1.054199 q 0.62632,-0.241846 1.21543,-0.359668 0.58911,-0.124024 1.14722,-0.124024 1.50688,0 2.25102,0.781348 0.74414,0.781348 0.74414,2.368848 z"
       style="font-style:normal;font-variant:normal;font-weight:normal;font-stretch:normal;font-size:12.69999981px;font-family:sans-serif;-inkscape-font-specification:sans-serif;text-align:center;text-anchor:middle;stroke-width:0.165;fill:none;fill-opacity:1;stroke:#000000;stroke-opacity:1;stroke-miterlimit:4;stroke-dasharray:none"
       id="path5467" />
    <path
       d="m 136.07468,99.252414 v 4.191996 h -1.14102 v -4.154789 q 0,-0.985986 -0.38447,-1.475878 -0.38447,-0.489893 -1.15342,-0.489893 -0.92397,0 -1.45727,0.589111 -0.5333,0.589112 -0.5333,1.606104 v 3.925345 h -1.14722 v -6.945316 h 1.14722 v 1.079004 q 0.40928,-0.626318 0.96118,-0.936377 0.55811,-0.310059 1.28364,-0.310059 1.19683,0 1.81074,0.744141 0.61392,0.73794 0.61392,2.176611 z"
       style="font-style:normal;font-variant:normal;font-weight:normal;font-stretch:normal;font-size:12.69999981px;font-family:sans-serif;-inkscape-font-specification:sans-serif;text-align:center;text-anchor:middle;stroke-width:0.165;fill:none;fill-opacity:1;stroke:#000000;stroke-opacity:1;stroke-miterlimit:4;stroke-dasharray:none"
       id="path5469" />
    <path
       d="m 142.79055,96.703733 v 1.079004 q -0.48369,-0.248047 -1.00459,-0.372071 -0.5209,-0.124023 -1.079,-0.124023 -0.84956,0 -1.27745,0.260449 -0.42168,0.260449 -0.42168,0.781348 0,0.396875 0.30386,0.626318 0.30386,0.223242 1.22163,0.427881 l 0.39068,0.08682 q 1.21543,0.26045 1.72392,0.737935 0.5147,0.47129 0.5147,1.32085 0,0.96739 -0.76895,1.53169 -0.76274,0.56431 -2.10219,0.56431 -0.55811,0 -1.16582,-0.11162 -0.60152,-0.10542 -1.27124,-0.32246 v -1.17822 q 0.63252,0.32866 1.24643,0.49609 0.61392,0.16123 1.21543,0.16123 0.80615,0 1.24024,-0.27285 0.43408,-0.27905 0.43408,-0.78135 0,-0.46509 -0.31626,-0.71313 -0.31006,-0.24805 -1.37046,-0.47749 l -0.39688,-0.093 q -1.0604,-0.22324 -1.53168,-0.682131 -0.47129,-0.465088 -0.47129,-1.27124 0,-0.979785 0.69453,-1.513086 0.69453,-0.533301 1.97197,-0.533301 0.63252,0 1.19063,0.09302 0.5581,0.09302 1.02939,0.279053 z"
       style="font-style:normal;font-variant:normal;font-weight:normal;font-stretch:normal;font-size:12.69999981px;font-family:sans-serif;-inkscape-font-specification:sans-serif;text-align:center;text-anchor:middle;stroke-width:0.165;fill:none;fill-opacity:1;stroke:#000000;stroke-opacity:1;stroke-miterlimit:4;stroke-dasharray:none"
       id="path5471" />
    <path
       d="m 146.08957,102.40261 v 3.6835 h -1.14722 v -9.587016 h 1.14722 v 1.054199 q 0.35967,-0.620117 0.90537,-0.917773 0.55191,-0.303858 1.31465,-0.303858 1.26504,0 2.05259,1.00459 0.79375,1.00459 0.79375,2.641699 0,1.637109 -0.79375,2.641699 -0.78755,1.00459 -2.05259,1.00459 -0.76274,0 -1.31465,-0.29766 -0.5457,-0.30385 -0.90537,-0.92397 z m 3.88193,-2.424659 q 0,-1.258837 -0.52089,-1.971972 -0.5147,-0.719336 -1.42007,-0.719336 -0.90537,0 -1.42627,0.719336 -0.5147,0.713135 -0.5147,1.971972 0,1.258839 0.5147,1.978179 0.5209,0.71313 1.42627,0.71313 0.90537,0 1.42007,-0.71313 0.52089,-0.71934 0.52089,-1.978179 z"
       style="font-style:normal;font-variant:normal;font-weight:normal;font-stretch:normal;font-size:12.69999981px;font-family:sans-serif;-inkscape-font-specification:sans-serif;text-align:center;text-anchor:middle;stroke-width:0.165;fill:none;fill-opacity:1;stroke:#000000;stroke-opacity:1;stroke-miterlimit:4;stroke-dasharray:none"
       id="path5473" />
    <path
       d="m 155.73859,97.299045 q -0.91777,0 -1.45107,0.719336 -0.5333,0.713135 -0.5333,1.95957 0,1.246439 0.5271,1.965769 0.5333,0.71314 1.45727,0.71314 0.91158,0 1.44488,-0.71934 0.5333,-0.71933 0.5333,-1.959569 0,-1.234033 -0.5333,-1.953369 -0.5333,-0.725537 -1.44488,-0.725537 z m 0,-0.967383 q 1.48828,0 2.33785,0.967383 0.84956,0.967383 0.84956,2.678906 0,1.705319 -0.84956,2.678909 -0.84957,0.96738 -2.33785,0.96738 -1.49448,0 -2.34404,-0.96738 -0.84336,-0.97359 -0.84336,-2.678909 0,-1.711523 0.84336,-2.678906 0.84956,-0.967383 2.34404,-0.967383 z"
       style="font-style:normal;font-variant:normal;font-weight:normal;font-stretch:normal;font-size:12.69999981px;font-family:sans-serif;-inkscape-font-specification:sans-serif;text-align:center;text-anchor:middle;stroke-width:0.165;fill:none;fill-opacity:1;stroke:#000000;stroke-opacity:1;stroke-miterlimit:4;stroke-dasharray:none"
       id="path5475" />
    <path
       d="m 164.83572,97.565696 q -0.19224,-0.111621 -0.42168,-0.161231 -0.22325,-0.05581 -0.4961,-0.05581 -0.96738,0 -1.48828,0.632519 -0.5147,0.626319 -0.5147,1.804541 v 3.658695 h -1.14721 v -6.945316 h 1.14721 v 1.079004 q 0.35967,-0.63252 0.93638,-0.936377 0.57671,-0.310059 1.40147,-0.310059 0.11782,0 0.26044,0.0186 0.14263,0.0124 0.31626,0.04341 z"
       style="font-style:normal;font-variant:normal;font-weight:normal;font-stretch:normal;font-size:12.69999981px;font-family:sans-serif;-inkscape-font-specification:sans-serif;text-align:center;text-anchor:middle;stroke-width:0.165;fill:none;fill-opacity:1;stroke:#000000;stroke-opacity:1;stroke-miterlimit:4;stroke-dasharray:none"
       id="path5477" />
    <path
       d="m 167.17356,94.527121 v 1.971973 h 2.35024 v 0.886768 h -2.35024 v 3.770308 q 0,0.84956 0.22944,1.09141 0.23564,0.24185 0.94878,0.24185 h 1.17202 v 0.95498 h -1.17202 q -1.32085,0 -1.82315,-0.4899 -0.50229,-0.49609 -0.50229,-1.79834 v -3.770308 h -0.83716 v -0.886768 h 0.83716 v -1.971973 z"
       style="font-style:normal;font-variant:normal;font-weight:normal;font-stretch:normal;font-size:12.69999981px;font-family:sans-serif;-inkscape-font-specification:sans-serif;text-align:center;text-anchor:middle;stroke-width:0.165;fill:none;fill-opacity:1;stroke:#000000;stroke-opacity:1;stroke-miterlimit:4;stroke-dasharray:none"
       id="path5479" />
    <path
       d="m 176.97141,99.686496 v 0.558104 h -5.2462 q 0.0744,1.17822 0.70694,1.79834 0.63872,0.61392 1.77353,0.61392 0.65733,0 1.27124,-0.16123 0.62012,-0.16123 1.22784,-0.48369 v 1.079 q -0.61392,0.26045 -1.25884,0.39687 -0.64492,0.13643 -1.30845,0.13643 -1.66191,0 -2.6355,-0.96738 -0.96738,-0.96739 -0.96738,-2.6169 0,-1.705319 0.91777,-2.703708 0.92398,-1.00459 2.48667,-1.00459 1.40147,0 2.21382,0.905372 0.81856,0.899169 0.81856,2.449462 z m -1.14102,-0.334863 q -0.0124,-0.936377 -0.5271,-1.494482 -0.5085,-0.558106 -1.35185,-0.558106 -0.95499,0 -1.53169,0.539502 -0.57051,0.539502 -0.65733,1.519287 z"
       style="font-style:normal;font-variant:normal;font-weight:normal;font-stretch:normal;font-size:12.69999981px;font-family:sans-serif;-inkscape-font-specification:sans-serif;text-align:center;text-anchor:middle;stroke-width:0.165;fill:none;fill-opacity:1;stroke:#000000;stroke-opacity:1;stroke-miterlimit:4;stroke-dasharray:none"
       id="path5481" />
    <path
       d="m 182.86872,97.565696 q -0.19224,-0.111621 -0.42168,-0.161231 -0.22324,-0.05581 -0.49609,-0.05581 -0.96739,0 -1.48828,0.632519 -0.5147,0.626319 -0.5147,1.804541 v 3.658695 h -1.14722 v -6.945316 h 1.14722 v 1.079004 q 0.35967,-0.63252 0.93638,-0.936377 0.5767,-0.310059 1.40146,-0.310059 0.11782,0 0.26045,0.0186 0.14263,0.0124 0.31626,0.04341 z"
       style="font-style:normal;font-variant:normal;font-weight:normal;font-stretch:normal;font-size:12.69999981px;font-family:sans-serif;-inkscape-font-specification:sans-serif;text-align:center;text-anchor:middle;stroke-width:0.165;fill:none;fill-opacity:1;stroke:#000000;stroke-opacity:1;stroke-miterlimit:4;stroke-dasharray:none"
       id="path5483" />
  </g>
  <text
     xml:space="preserve"
     style="font-style:normal;font-weight:normal;font-size:10.58333302px;line-height:1.25;font-family:sans-serif;text-align:end;letter-spacing:0px;word-spacing:0px;text-anchor:end;fill:none;fill-opacity:1;stroke:#000000;stroke-width:0.165;stroke-opacity:1;stroke-miterlimit:4;stroke-dasharray:none;"
     x="151.19048"
     y="202.86308"
     id="text5416"><tspan
       sodipodi:role="line"
       x="151.19048"
       y="212.22685"
       style="font-size:7.05555534px;line-height:0px;stroke-width:0.165;fill:none;fill-opacity:1;stroke:#000000;stroke-opacity:1;stroke-miterlimit:4;stroke-dasharray:none;"
       id="tspan5420" /></text>
  <g
     aria-label="entropia e.V.
Steinstr. 23
76137 Karlsruhe"
     style="font-style:normal;font-weight:normal;font-size:7.05555534px;line-height:1.25;font-family:sans-serif;text-align:end;letter-spacing:0px;word-spacing:0px;text-anchor:end;fill:none;fill-opacity:1;stroke:#000000;stroke-width:0.165;stroke-opacity:1;stroke-miterlimit:4;stroke-dasharray:none"
     id="text5429">
    <path
       d="m 177.92638,220.17347 v 0.31006 h -2.91455 q 0.0413,0.65457 0.39274,0.99908 0.35484,0.34106 0.9853,0.34106 0.36518,0 0.70624,-0.0896 0.34451,-0.0896 0.68213,-0.26872 v 0.59945 q -0.34106,0.14469 -0.69935,0.22049 -0.35829,0.0758 -0.72692,0.0758 -0.92328,0 -1.46416,-0.53744 -0.53744,-0.53743 -0.53744,-1.45383 0,-0.9474 0.50987,-1.50206 0.51332,-0.5581 1.38149,-0.5581 0.77859,0 1.2299,0.50298 0.45475,0.49954 0.45475,1.36081 z m -0.6339,-0.18603 q -0.007,-0.52021 -0.29283,-0.83027 -0.2825,-0.31006 -0.75103,-0.31006 -0.53055,0 -0.85094,0.29972 -0.31695,0.29973 -0.36518,0.84405 z"
       style="font-size:7.05555534px;stroke-width:0.165;fill:none;fill-opacity:1;stroke:#000000;stroke-opacity:1;stroke-miterlimit:4;stroke-dasharray:none"
       id="path5486" />
    <path
       d="m 182.17418,219.93232 v 2.32888 h -0.6339 v -2.30821 q 0,-0.54777 -0.21359,-0.81994 -0.2136,-0.27216 -0.64079,-0.27216 -0.51332,0 -0.8096,0.32728 -0.29627,0.32729 -0.29627,0.89228 v 2.18075 h -0.63735 v -3.85851 h 0.63735 v 0.59945 q 0.22737,-0.34795 0.53398,-0.52021 0.31006,-0.17225 0.71314,-0.17225 0.6649,0 1.00597,0.41341 0.34106,0.40996 0.34106,1.20923 z"
       style="font-size:7.05555534px;stroke-width:0.165;fill:none;fill-opacity:1;stroke:#000000;stroke-opacity:1;stroke-miterlimit:4;stroke-dasharray:none"
       id="path5488" />
    <path
       d="m 184.07243,217.30715 v 1.09554 h 1.30569 v 0.49265 h -1.30569 v 2.09462 q 0,0.47198 0.12747,0.60634 0.13091,0.13436 0.5271,0.13436 h 0.65112 v 0.53054 H 184.727 q -0.73381,0 -1.01286,-0.27216 -0.27905,-0.27561 -0.27905,-0.99908 v -2.09462 H 182.97 v -0.49265 h 0.46509 v -1.09554 z"
       style="font-size:7.05555534px;stroke-width:0.165;fill:none;fill-opacity:1;stroke:#000000;stroke-opacity:1;stroke-miterlimit:4;stroke-dasharray:none"
       id="path5490" />
    <path
       d="m 188.45115,218.99525 q -0.1068,-0.062 -0.23427,-0.0896 -0.12402,-0.031 -0.27561,-0.031 -0.53743,0 -0.82682,0.3514 -0.28594,0.34796 -0.28594,1.00252 v 2.03261 h -0.63735 v -3.85851 h 0.63735 v 0.59945 q 0.19981,-0.3514 0.52021,-0.52021 0.32039,-0.17225 0.77859,-0.17225 0.0654,0 0.14469,0.0103 0.0792,0.007 0.1757,0.0241 z"
       style="font-size:7.05555534px;stroke-width:0.165;fill:none;fill-opacity:1;stroke:#000000;stroke-opacity:1;stroke-miterlimit:4;stroke-dasharray:none"
       id="path5492" />
    <path
       d="m 190.46653,218.84711 q -0.50988,0 -0.80616,0.39963 -0.29627,0.39619 -0.29627,1.08865 0,0.69247 0.29283,1.0921 0.29628,0.39618 0.8096,0.39618 0.50643,0 0.8027,-0.39963 0.29628,-0.39963 0.29628,-1.08865 0,-0.68557 -0.29628,-1.0852 -0.29627,-0.40308 -0.8027,-0.40308 z m 0,-0.53743 q 0.82682,0 1.2988,0.53743 0.47198,0.53744 0.47198,1.48828 0,0.9474 -0.47198,1.48828 -0.47198,0.53744 -1.2988,0.53744 -0.83027,0 -1.30225,-0.53744 -0.46853,-0.54088 -0.46853,-1.48828 0,-0.95084 0.46853,-1.48828 0.47198,-0.53743 1.30225,-0.53743 z"
       style="font-size:7.05555534px;stroke-width:0.165;fill:none;fill-opacity:1;stroke:#000000;stroke-opacity:1;stroke-miterlimit:4;stroke-dasharray:none"
       id="path5494" />
    <path
       d="m 193.89784,221.68242 v 2.04639 h -0.63734 v -5.32612 h 0.63734 v 0.58567 q 0.19982,-0.34451 0.50298,-0.50987 0.30662,-0.16881 0.73037,-0.16881 0.70279,0 1.14032,0.5581 0.44097,0.55811 0.44097,1.46761 0,0.90951 -0.44097,1.46761 -0.43753,0.55811 -1.14032,0.55811 -0.42375,0 -0.73037,-0.16537 -0.30316,-0.16881 -0.50298,-0.51332 z m 2.15663,-1.34703 q 0,-0.69935 -0.28939,-1.09554 -0.28594,-0.39963 -0.78892,-0.39963 -0.50299,0 -0.79238,0.39963 -0.28594,0.39619 -0.28594,1.09554 0,0.69936 0.28594,1.09899 0.28939,0.39618 0.79238,0.39618 0.50298,0 0.78892,-0.39618 0.28939,-0.39963 0.28939,-1.09899 z"
       style="font-size:7.05555534px;stroke-width:0.165;fill:none;fill-opacity:1;stroke:#000000;stroke-opacity:1;stroke-miterlimit:4;stroke-dasharray:none"
       id="path5496" />
    <path
       d="m 197.76324,218.40269 h 0.6339 v 3.85851 h -0.6339 z m 0,-1.50206 h 0.6339 v 0.80271 h -0.6339 z"
       style="font-size:7.05555534px;stroke-width:0.165;fill:none;fill-opacity:1;stroke:#000000;stroke-opacity:1;stroke-miterlimit:4;stroke-dasharray:none"
       id="path5498" />
    <path
       d="m 201.47361,220.32161 q -0.76826,0 -1.06454,0.1757 -0.29628,0.1757 -0.29628,0.59945 0,0.33762 0.22049,0.53743 0.22393,0.19637 0.60634,0.19637 0.5271,0 0.84404,-0.37207 0.3204,-0.37551 0.3204,-0.99563 v -0.14125 z m 1.26435,-0.26183 v 2.20142 h -0.6339 v -0.58567 q -0.21704,0.3514 -0.54088,0.52021 -0.32384,0.16537 -0.79237,0.16537 -0.59256,0 -0.94396,-0.33073 -0.34795,-0.33418 -0.34795,-0.89228 0,-0.65112 0.43408,-0.98185 0.43752,-0.33073 1.30224,-0.33073 h 0.88884 v -0.062 q 0,-0.43753 -0.28939,-0.67524 -0.28594,-0.24116 -0.80615,-0.24116 -0.33073,0 -0.64424,0.0792 -0.3135,0.0792 -0.60289,0.23771 v -0.58567 q 0.34796,-0.13436 0.67524,-0.19981 0.32729,-0.0689 0.63734,-0.0689 0.83716,0 1.25057,0.43408 0.41342,0.43408 0.41342,1.31602 z"
       style="font-size:7.05555534px;stroke-width:0.165;fill:none;fill-opacity:1;stroke:#000000;stroke-opacity:1;stroke-miterlimit:4;stroke-dasharray:none"
       id="path5500" />
    <path
       d="m 209.5937,220.17347 v 0.31006 h -2.91456 q 0.0414,0.65457 0.39275,0.99908 0.35484,0.34106 0.98529,0.34106 0.36518,0 0.70625,-0.0896 0.34451,-0.0896 0.68213,-0.26872 v 0.59945 q -0.34107,0.14469 -0.69936,0.22049 -0.35829,0.0758 -0.72691,0.0758 -0.92329,0 -1.46417,-0.53744 -0.53743,-0.53743 -0.53743,-1.45383 0,-0.9474 0.50987,-1.50206 0.51332,-0.5581 1.38148,-0.5581 0.7786,0 1.2299,0.50298 0.45476,0.49954 0.45476,1.36081 z m -0.6339,-0.18603 q -0.007,-0.52021 -0.29283,-0.83027 -0.2825,-0.31006 -0.75104,-0.31006 -0.53054,0 -0.85093,0.29972 -0.31695,0.29973 -0.36518,0.84405 z"
       style="font-size:7.05555534px;stroke-width:0.165;fill:none;fill-opacity:1;stroke:#000000;stroke-opacity:1;stroke-miterlimit:4;stroke-dasharray:none"
       id="path5502" />
    <path
       d="m 210.72369,221.38615 h 0.72691 v 0.87505 h -0.72691 z"
       style="font-size:7.05555534px;stroke-width:0.165;fill:none;fill-opacity:1;stroke:#000000;stroke-opacity:1;stroke-miterlimit:4;stroke-dasharray:none"
       id="path5504" />
    <path
       d="m 214.23424,222.2612 -1.9637,-5.14353 h 0.72691 l 1.62953,4.33049 1.63298,-4.33049 h 0.72347 l -1.96026,5.14353 z"
       style="font-size:7.05555534px;stroke-width:0.165;fill:none;fill-opacity:1;stroke:#000000;stroke-opacity:1;stroke-miterlimit:4;stroke-dasharray:none"
       id="path5506" />
    <path
       d="m 216.88352,221.38615 h 0.72691 v 0.87505 h -0.72691 z"
       style="font-size:7.05555534px;stroke-width:0.165;fill:none;fill-opacity:1;stroke:#000000;stroke-opacity:1;stroke-miterlimit:4;stroke-dasharray:none"
       id="path5508" />
    <path
       d="m 181.93992,226.10593 v 0.67868 q -0.39619,-0.18948 -0.74759,-0.2825 -0.3514,-0.093 -0.67868,-0.093 -0.56844,0 -0.8785,0.22049 -0.30662,0.22049 -0.30662,0.62701 0,0.34106 0.20326,0.51676 0.20671,0.17226 0.7786,0.27906 l 0.4203,0.0861 q 0.77859,0.14814 1.14721,0.52366 0.37207,0.37207 0.37207,0.99907 0,0.74759 -0.50298,1.13344 -0.49954,0.38585 -1.46761,0.38585 -0.36518,0 -0.77859,-0.0827 -0.40997,-0.0827 -0.85094,-0.2446 v -0.71658 q 0.42375,0.23771 0.83027,0.35829 0.40652,0.12058 0.79926,0.12058 0.596,0 0.91984,-0.23427 0.32384,-0.23427 0.32384,-0.66835 0,-0.37896 -0.23427,-0.59256 -0.23082,-0.21359 -0.76136,-0.32039 l -0.42375,-0.0827 q -0.77859,-0.15503 -1.12655,-0.48576 -0.34795,-0.33073 -0.34795,-0.91984 0,-0.68213 0.47887,-1.07487 0.48231,-0.39274 1.32636,-0.39274 0.36173,0 0.73725,0.0655 0.37551,0.0654 0.76826,0.19637 z"
       style="font-size:7.05555534px;stroke-width:0.165;fill:none;fill-opacity:1;stroke:#000000;stroke-opacity:1;stroke-miterlimit:4;stroke-dasharray:none"
       id="path5510" />
    <path
       d="m 183.93463,226.1266 v 1.09554 h 1.30569 v 0.49265 h -1.30569 v 2.09461 q 0,0.47198 0.12746,0.60634 0.13092,0.13436 0.5271,0.13436 h 0.65113 v 0.53054 h -0.65113 q -0.7338,0 -1.01285,-0.27216 -0.27906,-0.27561 -0.27906,-0.99908 v -2.09461 h -0.46509 v -0.49265 h 0.46509 v -1.09554 z"
       style="font-size:7.05555534px;stroke-width:0.165;fill:none;fill-opacity:1;stroke:#000000;stroke-opacity:1;stroke-miterlimit:4;stroke-dasharray:none"
       id="path5512" />
    <path
       d="m 189.37788,228.99292 v 0.31005 h -2.91455 q 0.0413,0.65457 0.39274,0.99908 0.35484,0.34107 0.98529,0.34107 0.36518,0 0.70625,-0.0896 0.34451,-0.0896 0.68213,-0.26871 v 0.59944 q -0.34107,0.1447 -0.69936,0.22049 -0.35829,0.0758 -0.72691,0.0758 -0.92329,0 -1.46417,-0.53743 -0.53743,-0.53744 -0.53743,-1.45383 0,-0.9474 0.50987,-1.50206 0.51332,-0.55811 1.38148,-0.55811 0.7786,0 1.2299,0.50298 0.45476,0.49954 0.45476,1.36082 z m -0.6339,-0.18604 q -0.007,-0.52021 -0.29283,-0.83027 -0.2825,-0.31006 -0.75104,-0.31006 -0.53054,0 -0.85093,0.29973 -0.31695,0.29972 -0.36518,0.84405 z"
       style="font-size:7.05555534px;stroke-width:0.165;fill:none;fill-opacity:1;stroke:#000000;stroke-opacity:1;stroke-miterlimit:4;stroke-dasharray:none"
       id="path5514" />
    <path
       d="m 190.4183,227.22214 h 0.63389 v 3.8585 h -0.63389 z m 0,-1.50206 h 0.63389 v 0.8027 h -0.63389 z"
       style="font-size:7.05555534px;stroke-width:0.165;fill:none;fill-opacity:1;stroke:#000000;stroke-opacity:1;stroke-miterlimit:4;stroke-dasharray:none"
       id="path5516" />
    <path
       d="m 195.58249,228.75176 v 2.32888 h -0.63389 v -2.30821 q 0,-0.54777 -0.2136,-0.81993 -0.2136,-0.27217 -0.64079,-0.27217 -0.51332,0 -0.8096,0.32729 -0.29627,0.32728 -0.29627,0.89228 v 2.18074 h -0.63735 v -3.8585 h 0.63735 v 0.59944 q 0.22737,-0.34795 0.53399,-0.52021 0.31005,-0.17225 0.71313,-0.17225 0.6649,0 1.00597,0.41341 0.34106,0.40997 0.34106,1.20923 z"
       style="font-size:7.05555534px;stroke-width:0.165;fill:none;fill-opacity:1;stroke:#000000;stroke-opacity:1;stroke-miterlimit:4;stroke-dasharray:none"
       id="path5518" />
    <path
       d="m 199.31353,227.33583 v 0.59944 q -0.26872,-0.1378 -0.5581,-0.2067 -0.28939,-0.0689 -0.59945,-0.0689 -0.47198,0 -0.70969,0.1447 -0.23427,0.14469 -0.23427,0.43408 0,0.22049 0.16881,0.34796 0.16881,0.12402 0.67869,0.23771 l 0.21704,0.0482 q 0.67524,0.14469 0.95773,0.40996 0.28595,0.26183 0.28595,0.73381 0,0.53743 -0.4272,0.85094 -0.42374,0.3135 -1.16788,0.3135 -0.31006,0 -0.64768,-0.062 -0.33417,-0.0586 -0.70625,-0.17914 v -0.65457 q 0.3514,0.18259 0.69247,0.2756 0.34106,0.0896 0.67524,0.0896 0.44786,0 0.68902,-0.15159 0.24115,-0.15503 0.24115,-0.43408 0,-0.25838 -0.1757,-0.39618 -0.17225,-0.13781 -0.76136,-0.26528 l -0.22049,-0.0517 q -0.58911,-0.12403 -0.85094,-0.37896 -0.26182,-0.25839 -0.26182,-0.70625 0,-0.54432 0.38585,-0.8406 0.38585,-0.29628 1.09554,-0.29628 0.3514,0 0.66145,0.0517 0.31006,0.0517 0.57189,0.15503 z"
       style="font-size:7.05555534px;stroke-width:0.165;fill:none;fill-opacity:1;stroke:#000000;stroke-opacity:1;stroke-miterlimit:4;stroke-dasharray:none"
       id="path5520" />
    <path
       d="m 201.1601,226.1266 v 1.09554 h 1.30569 v 0.49265 h -1.30569 v 2.09461 q 0,0.47198 0.12747,0.60634 0.13092,0.13436 0.5271,0.13436 h 0.65112 v 0.53054 h -0.65112 q -0.7338,0 -1.01286,-0.27216 -0.27905,-0.27561 -0.27905,-0.99908 v -2.09461 h -0.46509 v -0.49265 h 0.46509 v -1.09554 z"
       style="font-size:7.05555534px;stroke-width:0.165;fill:none;fill-opacity:1;stroke:#000000;stroke-opacity:1;stroke-miterlimit:4;stroke-dasharray:none"
       id="path5522" />
    <path
       d="m 205.53882,227.81469 q -0.1068,-0.062 -0.23427,-0.0896 -0.12402,-0.031 -0.27561,-0.031 -0.53743,0 -0.82682,0.3514 -0.28594,0.34795 -0.28594,1.00252 v 2.0326 h -0.63734 v -3.8585 h 0.63734 v 0.59944 q 0.19981,-0.3514 0.52021,-0.52021 0.32039,-0.17225 0.77859,-0.17225 0.0655,0 0.14469,0.0103 0.0792,0.007 0.1757,0.0241 z"
       style="font-size:7.05555534px;stroke-width:0.165;fill:none;fill-opacity:1;stroke:#000000;stroke-opacity:1;stroke-miterlimit:4;stroke-dasharray:none"
       id="path5524" />
    <path
       d="m 205.65251,230.20559 h 0.72691 v 0.87505 h -0.72691 z"
       style="font-size:7.05555534px;stroke-width:0.165;fill:none;fill-opacity:1;stroke:#000000;stroke-opacity:1;stroke-miterlimit:4;stroke-dasharray:none"
       id="path5526" />
    <path
       d="m 210.74436,230.49498 h 2.42879 v 0.58566 h -3.26595 v -0.58566 q 0.39619,-0.40997 1.07832,-1.09899 0.68557,-0.69246 0.86127,-0.89228 0.33417,-0.37551 0.46509,-0.63389 0.13436,-0.26183 0.13436,-0.51332 0,-0.40997 -0.28939,-0.66835 -0.28595,-0.25838 -0.74759,-0.25838 -0.32728,0 -0.69246,0.11368 -0.36174,0.11369 -0.77515,0.34451 v -0.7028 q 0.4203,-0.16881 0.78548,-0.25493 0.36518,-0.0861 0.66835,-0.0861 0.79926,0 1.27469,0.39963 0.47542,0.39963 0.47542,1.06798 0,0.31695 -0.12058,0.60289 -0.11713,0.2825 -0.43064,0.66835 -0.0861,0.0999 -0.54777,0.57878 -0.46164,0.47542 -1.30224,1.33325 z"
       style="font-size:7.05555534px;stroke-width:0.165;fill:none;fill-opacity:1;stroke:#000000;stroke-opacity:1;stroke-miterlimit:4;stroke-dasharray:none"
       id="path5528" />
    <path
       d="m 216.74572,228.30734 q 0.49953,0.1068 0.77859,0.44442 0.28249,0.33762 0.28249,0.83371 0,0.76137 -0.52365,1.17823 -0.52365,0.41685 -1.48828,0.41685 -0.32384,0 -0.66835,-0.0654 -0.34106,-0.062 -0.70624,-0.18949 v -0.67179 q 0.28938,0.16881 0.63389,0.25494 0.34451,0.0861 0.72003,0.0861 0.65457,0 0.99563,-0.25839 0.34451,-0.25838 0.34451,-0.75103 0,-0.45475 -0.32039,-0.70969 -0.31695,-0.25838 -0.88539,-0.25838 h -0.59945 v -0.57188 h 0.62701 q 0.51332,0 0.78548,-0.20327 0.27216,-0.2067 0.27216,-0.59255 0,-0.39619 -0.2825,-0.60634 -0.27905,-0.21359 -0.8027,-0.21359 -0.28595,0 -0.61323,0.062 -0.32728,0.062 -0.72002,0.19292 v -0.62011 q 0.39618,-0.11025 0.74069,-0.16537 0.34796,-0.0551 0.65457,-0.0551 0.79237,0 1.25401,0.36173 0.46165,0.35829 0.46165,0.97152 0,0.42719 -0.24461,0.72347 -0.2446,0.29283 -0.6959,0.40652 z"
       style="font-size:7.05555534px;stroke-width:0.165;fill:none;fill-opacity:1;stroke:#000000;stroke-opacity:1;stroke-miterlimit:4;stroke-dasharray:none"
       id="path5530" />
    <path
       d="m 160.66301,234.75656 h 3.30729 v 0.29628 l -1.86724,4.84725 h -0.72692 l 1.757,-4.55786 h -2.47013 z"
       style="font-size:7.05555534px;stroke-width:0.165;fill:none;fill-opacity:1;stroke:#000000;stroke-opacity:1;stroke-miterlimit:4;stroke-dasharray:none"
       id="path5532" />
    <path
       d="m 166.90552,237.05099 q -0.46853,0 -0.74414,0.3204 -0.27216,0.32039 -0.27216,0.8785 0,0.55466 0.27216,0.8785 0.27561,0.32039 0.74414,0.32039 0.46853,0 0.74069,-0.32039 0.27561,-0.32384 0.27561,-0.8785 0,-0.55811 -0.27561,-0.8785 -0.27216,-0.3204 -0.74069,-0.3204 z m 1.38148,-2.18074 v 0.6339 q -0.26182,-0.12403 -0.53054,-0.18948 -0.26527,-0.0655 -0.5271,-0.0655 -0.68902,0 -1.0542,0.46509 -0.36174,0.46509 -0.41341,1.4056 0.20326,-0.29973 0.50987,-0.4582 0.30662,-0.16192 0.67524,-0.16192 0.77515,0 1.22301,0.47198 0.45131,0.46853 0.45131,1.27813 0,0.79237 -0.46854,1.27124 Q 167.68411,240 166.90552,240 q -0.89228,0 -1.36426,-0.68213 -0.47198,-0.68558 -0.47198,-1.98438 0,-1.21956 0.57878,-1.94303 0.57878,-0.72692 1.55374,-0.72692 0.26182,0 0.5271,0.0517 0.26871,0.0517 0.5581,0.15503 z"
       style="font-size:7.05555534px;stroke-width:0.165;fill:none;fill-opacity:1;stroke:#000000;stroke-opacity:1;stroke-miterlimit:4;stroke-dasharray:none"
       id="path5534" />
    <path
       d="m 169.94409,239.31442 h 1.13688 v -3.92396 l -1.23678,0.24805 v -0.6339 l 1.22989,-0.24805 h 0.69591 v 4.55786 h 1.13689 v 0.58567 h -2.96279 z"
       style="font-size:7.05555534px;stroke-width:0.165;fill:none;fill-opacity:1;stroke:#000000;stroke-opacity:1;stroke-miterlimit:4;stroke-dasharray:none"
       id="path5536" />
    <path
       d="m 176.42432,237.12679 q 0.49954,0.10679 0.77859,0.44441 0.2825,0.33762 0.2825,0.83372 0,0.76136 -0.52366,1.17822 Q 176.4381,240 175.47347,240 q -0.32384,0 -0.66835,-0.0655 -0.34106,-0.062 -0.70624,-0.18948 v -0.67179 q 0.28939,0.16881 0.6339,0.25493 0.34451,0.0861 0.72002,0.0861 0.65457,0 0.99563,-0.25838 0.34451,-0.25838 0.34451,-0.75103 0,-0.45476 -0.32039,-0.70969 -0.31695,-0.25838 -0.88539,-0.25838 h -0.59945 v -0.57189 h 0.62701 q 0.51332,0 0.78548,-0.20326 0.27216,-0.20671 0.27216,-0.59256 0,-0.39618 -0.28249,-0.60633 -0.27906,-0.2136 -0.80271,-0.2136 -0.28594,0 -0.61323,0.062 -0.32728,0.062 -0.72002,0.19293 v -0.62012 q 0.39618,-0.11024 0.74069,-0.16537 0.34796,-0.0551 0.65457,-0.0551 0.79237,0 1.25402,0.36174 0.46164,0.35829 0.46164,0.97152 0,0.42719 -0.2446,0.72347 -0.24461,0.29283 -0.69591,0.40652 z"
       style="font-size:7.05555534px;stroke-width:0.165;fill:none;fill-opacity:1;stroke:#000000;stroke-opacity:1;stroke-miterlimit:4;stroke-dasharray:none"
       id="path5538" />
    <path
       d="m 178.63262,234.75656 h 3.3073 v 0.29628 l -1.86725,4.84725 h -0.72691 l 1.757,-4.55786 h -2.47014 z"
       style="font-size:7.05555534px;stroke-width:0.165;fill:none;fill-opacity:1;stroke:#000000;stroke-opacity:1;stroke-miterlimit:4;stroke-dasharray:none"
       id="path5540" />
    <path
       d="m 185.48492,234.75656 h 0.69591 v 2.17386 l 2.30821,-2.17386 h 0.89573 l -2.55282,2.39779 2.73541,2.74574 h -0.9164 l -2.47013,-2.47703 v 2.47703 h -0.69591 z"
       style="font-size:7.05555534px;stroke-width:0.165;fill:none;fill-opacity:1;stroke:#000000;stroke-opacity:1;stroke-miterlimit:4;stroke-dasharray:none"
       id="path5542" />
    <path
       d="m 191.7171,237.9605 q -0.76826,0 -1.06454,0.1757 -0.29628,0.1757 -0.29628,0.59945 0,0.33762 0.22049,0.53743 0.22393,0.19637 0.60634,0.19637 0.5271,0 0.84404,-0.37207 0.3204,-0.37551 0.3204,-0.99563 v -0.14125 z m 1.26435,-0.26183 v 2.20142 h -0.6339 v -0.58567 q -0.21704,0.3514 -0.54088,0.52021 Q 191.48283,240 191.0143,240 q -0.59256,0 -0.94396,-0.33073 -0.34795,-0.33418 -0.34795,-0.89228 0,-0.65113 0.43408,-0.98185 0.43753,-0.33073 1.30224,-0.33073 h 0.88884 v -0.062 q 0,-0.43752 -0.28939,-0.67523 -0.28594,-0.24116 -0.80615,-0.24116 -0.33073,0 -0.64423,0.0792 -0.31351,0.0792 -0.6029,0.23771 v -0.58567 q 0.34796,-0.13436 0.67524,-0.19981 0.32729,-0.0689 0.63735,-0.0689 0.83715,0 1.25056,0.43409 0.41342,0.43408 0.41342,1.31602 z"
       style="font-size:7.05555534px;stroke-width:0.165;fill:none;fill-opacity:1;stroke:#000000;stroke-opacity:1;stroke-miterlimit:4;stroke-dasharray:none"
       id="path5544" />
    <path
       d="m 196.52645,236.63414 q -0.1068,-0.062 -0.23427,-0.0896 -0.12402,-0.031 -0.2756,-0.031 -0.53744,0 -0.82683,0.3514 -0.28594,0.34795 -0.28594,1.00252 v 2.03261 h -0.63734 v -3.85851 h 0.63734 v 0.59945 q 0.19982,-0.3514 0.52021,-0.52021 0.32039,-0.17226 0.77859,-0.17226 0.0655,0 0.1447,0.0103 0.0792,0.007 0.1757,0.0241 z"
       style="font-size:7.05555534px;stroke-width:0.165;fill:none;fill-opacity:1;stroke:#000000;stroke-opacity:1;stroke-miterlimit:4;stroke-dasharray:none"
       id="path5546" />
    <path
       d="m 197.19824,234.53952 h 0.6339 v 5.36057 h -0.6339 z"
       style="font-size:7.05555534px;stroke-width:0.165;fill:none;fill-opacity:1;stroke:#000000;stroke-opacity:1;stroke-miterlimit:4;stroke-dasharray:none"
       id="path5548" />
    <path
       d="m 201.61485,236.15527 v 0.59945 q -0.26871,-0.13781 -0.5581,-0.20671 -0.28939,-0.0689 -0.59945,-0.0689 -0.47198,0 -0.70969,0.14469 -0.23426,0.1447 -0.23426,0.43408 0,0.22049 0.16881,0.34796 0.1688,0.12402 0.67868,0.23771 l 0.21704,0.0482 q 0.67524,0.1447 0.95774,0.40997 0.28594,0.26183 0.28594,0.7338 0,0.53744 -0.42719,0.85094 Q 200.97062,240 200.22648,240 q -0.31006,0 -0.64768,-0.062 -0.33417,-0.0586 -0.70624,-0.17914 v -0.65457 q 0.3514,0.18259 0.69246,0.27561 0.34107,0.0896 0.67524,0.0896 0.44786,0 0.68902,-0.15158 0.24116,-0.15503 0.24116,-0.43408 0,-0.25839 -0.1757,-0.39619 -0.17226,-0.1378 -0.76137,-0.26527 l -0.22049,-0.0517 q -0.58911,-0.12402 -0.85093,-0.37896 -0.26183,-0.25838 -0.26183,-0.70624 0,-0.54433 0.38585,-0.84061 0.38585,-0.29628 1.09554,-0.29628 0.3514,0 0.66146,0.0517 0.31006,0.0517 0.57188,0.15503 z"
       style="font-size:7.05555534px;stroke-width:0.165;fill:none;fill-opacity:1;stroke:#000000;stroke-opacity:1;stroke-miterlimit:4;stroke-dasharray:none"
       id="path5550" />
    <path
       d="m 205.07029,236.63414 q -0.1068,-0.062 -0.23427,-0.0896 -0.12402,-0.031 -0.27561,-0.031 -0.53743,0 -0.82682,0.3514 -0.28594,0.34795 -0.28594,1.00252 v 2.03261 h -0.63735 v -3.85851 h 0.63735 v 0.59945 q 0.19981,-0.3514 0.52021,-0.52021 0.32039,-0.17226 0.77859,-0.17226 0.0654,0 0.14469,0.0103 0.0792,0.007 0.1757,0.0241 z"
       style="font-size:7.05555534px;stroke-width:0.165;fill:none;fill-opacity:1;stroke:#000000;stroke-opacity:1;stroke-miterlimit:4;stroke-dasharray:none"
       id="path5552" />
    <path
       d="m 205.67662,238.37736 v -2.33578 h 0.6339 v 2.31166 q 0,0.54777 0.2136,0.82338 0.21359,0.27216 0.64078,0.27216 0.51332,0 0.8096,-0.32728 0.29973,-0.32729 0.29973,-0.89228 v -2.18764 h 0.63389 v 3.85851 h -0.63389 v -0.59256 q -0.23083,0.3514 -0.53744,0.52366 Q 207.43362,240 207.03055,240 q -0.66491,0 -1.00942,-0.41342 -0.34451,-0.41341 -0.34451,-1.20922 z m 1.59508,-2.4288 z"
       style="font-size:7.05555534px;stroke-width:0.165;fill:none;fill-opacity:1;stroke:#000000;stroke-opacity:1;stroke-miterlimit:4;stroke-dasharray:none"
       id="path5554" />
    <path
       d="m 213.42809,237.5712 v 2.32889 h -0.6339 v -2.30822 q 0,-0.54777 -0.2136,-0.81993 -0.21359,-0.27216 -0.64078,-0.27216 -0.51332,0 -0.8096,0.32728 -0.29628,0.32729 -0.29628,0.89228 v 2.18075 h -0.63734 v -5.36057 h 0.63734 v 2.10151 q 0.22738,-0.34796 0.53399,-0.52021 0.31006,-0.17226 0.71313,-0.17226 0.66491,0 1.00597,0.41342 0.34107,0.40996 0.34107,1.20922 z"
       style="font-size:7.05555534px;stroke-width:0.165;fill:none;fill-opacity:1;stroke:#000000;stroke-opacity:1;stroke-miterlimit:4;stroke-dasharray:none"
       id="path5556" />
    <path
       d="m 217.99973,237.81236 v 0.31006 h -2.91455 q 0.0413,0.65457 0.39274,0.99908 0.35485,0.34106 0.9853,0.34106 0.36518,0 0.70624,-0.0896 0.34451,-0.0896 0.68213,-0.26872 v 0.59945 q -0.34106,0.14469 -0.69935,0.22048 -0.35829,0.0758 -0.72692,0.0758 -0.92328,0 -1.46416,-0.53744 -0.53744,-0.53743 -0.53744,-1.45383 0,-0.9474 0.50988,-1.50206 0.51331,-0.55811 1.38148,-0.55811 0.77859,0 1.2299,0.50299 0.45475,0.49954 0.45475,1.36081 z m -0.6339,-0.18603 q -0.007,-0.52021 -0.29283,-0.83027 -0.2825,-0.31006 -0.75103,-0.31006 -0.53055,0 -0.85094,0.29972 -0.31695,0.29973 -0.36518,0.84405 z"
       style="font-size:7.05555534px;stroke-width:0.165;fill:none;fill-opacity:1;stroke:#000000;stroke-opacity:1;stroke-miterlimit:4;stroke-dasharray:none"
       id="path5558" />
  </g>
</svg>
