<?xml version="1.0" encoding="UTF-8" standalone="no"?>
<!-- Created with Inkscape (http://www.inkscape.org/) -->

<svg
   xmlns:dc="http://purl.org/dc/elements/1.1/"
   xmlns:cc="http://creativecommons.org/ns#"
   xmlns:rdf="http://www.w3.org/1999/02/22-rdf-syntax-ns#"
   xmlns:svg="http://www.w3.org/2000/svg"
   xmlns="http://www.w3.org/2000/svg"
   xmlns:sodipodi="http://sodipodi.sourceforge.net/DTD/sodipodi-0.dtd"
   xmlns:inkscape="http://www.inkscape.org/namespaces/inkscape"
   width="210mm"
   height="297mm"
   viewBox="0 0 210 297"
   version="1.1"
   id="svg8"
   inkscape:version="0.92.2 (5c3e80d, 2017-08-06)"
   sodipodi:docname="2box.svg">
  <sodipodi:namedview
     id="base"
     pagecolor="#ffffff"
     bordercolor="#666666"
     borderopacity="1.0"
     inkscape:pageopacity="0.0"
     inkscape:pageshadow="2"
     inkscape:zoom="0.49497475"
     inkscape:cx="-600.5004"
     inkscape:cy="287.19251"
     inkscape:document-units="mm"
     inkscape:current-layer="layer1"
     showgrid="false"
     inkscape:window-width="1920"
     inkscape:window-height="1007"
     inkscape:window-x="0"
     inkscape:window-y="0"
     inkscape:window-maximized="1" />
  <defs
     id="defs2" />
  <metadata
     id="metadata5">
    <rdf:RDF>
      <cc:Work
         rdf:about="">
        <dc:format>image/svg+xml</dc:format>
        <dc:type
           rdf:resource="http://purl.org/dc/dcmitype/StillImage" />
        <dc:title></dc:title>
      </cc:Work>
    </rdf:RDF>
  </metadata>
  <g
     inkscape:label="Layer 1"
     inkscape:groupmode="layer"
     id="layer1">
    <path
       id="path1044"
       inkscape:label="part"
       style="fill:none;stroke:#000000;stroke-width:1"
       d="m -248.2109,483.7704 v -6.58 h -4 v -10.09 h 4 v -10.535 h -4 v -10.09 h 4 v -10.535 h -4 v -10.09 h 4 v -10.535 h -4 v -10.09 h 4 v -10.535 h -4 v -10.09 h 4 v -10.535 h -4 v -10.09 h 4 v -10.535 h -4 v -10.09 h 4 v -10.535 h -4 v -10.09 h 4 v -10.535 h -4 v -10.09 h 4 v -10.535 h -4 v -10.09 h 4 v -10.535 h -4 v -10.09 h 4 v -10.58"
       inkscape:connector-curvature="0"
       sodipodi:nodetypes="cccccccccccccccccccccccccccccccccccccccccccccc" />
    <path
       id="path1046"
       inkscape:label="part"
       style="fill:none;stroke:#000000;stroke-width:1"
       d="m -248.2109,250.2704 h 6.66038 v 4 h 9.91 v -4 h 10.70539 v 4 h 9.91 v -4 h 10.70538 v 4 h 9.91 v -4 h 10.70539 v 4 h 9.91 v -4 h 10.70538 v 4 h 9.91001 v -4 h 10.70539 v 4 h 9.91 v -4 h 10.70538 v 4 h 9.91 v -4 h 10.705392 v 4 h 9.91 v -4 h 10.70538 v 4 h 9.91 v -4 h 10.70537 v 4 h 9.91 v 229.58928"
       inkscape:connector-curvature="0"
       sodipodi:nodetypes="ccccccccccccccccccccccccccccccccccccccccc" />
    <path
       id="path1050"
       inkscape:label="part"
       style="fill:none;stroke:#000000;stroke-width:1"
       d="m -46.012058,483.7704 v 4 h -10.09 v -4 h -10.52538 v 4 h -10.09 v -4 h -10.52538 v 4 h -10.09 v -4 h -10.525392 v 4 h -10.09 v -4 h -10.52538 v 4 h -10.09 v -4 h -10.52538 v 4 h -10.09001 v -4 h -10.52538 v 4 h -10.09 v -4 h -10.52539 v 4 h -10.09 v -4 h -10.52538 v 4 h -10.09 v -4 h -10.52539 v 4 h -10.09 v -4 h -6.57038"
       inkscape:connector-curvature="0"
       sodipodi:nodetypes="ccccccccccccccccccccccccccccccccccccccccc" />
    <path
       id="path1052"
       inkscape:label="part"
       style="fill:none;stroke:#000000;stroke-width:1"
       d="m -302.33889,-70.756868 0.005,-4.004185 10.56562,0.0042 h 10.09 v 0 h 10.52539 v 0 h 10.09 v 0 h 10.52538 v 0 h 10.09 v 4 h 10.52539 v -4 h 10.09 v 4 h 10.52538 v -4 h 10.09 v 4 h 10.52539 v -4 h 10.09 v 4 h 10.52538 v -4 h 10.09 v 4 h 10.52539 v -4 h 10.08999 v 4 h 10.52539 v -4 h 10.09 v 4 h 10.52538 v -4 h 10.090005 v 4 h 10.52539 v -4 h 10.09 v 4 h 10.52538 v -4 h 10.090001 v 4 h 6.57039"
       inkscape:connector-curvature="0"
       sodipodi:nodetypes="cccccccccccccccccccccccccccccccccccccccccccccccccc" />
    <path
       id="path1054"
       inkscape:label="part"
       style="fill:none;stroke:#000000;stroke-width:1"
       d="m -48.338884,-70.756868 v 11.954999 h 4 v 10.090001 h -4 v 15.91 h 4 v 10.089999 h -4 v 15.9549996"
       inkscape:connector-curvature="0" />
    <path
       id="path1056"
       inkscape:label="part"
       style="fill:none;stroke:#000000;stroke-width:1"
       d="m -48.338884,-6.7568694 h -6.66039 v -3.9999996 h -9.910001 v 3.9999996 h -10.70538 v -3.9999996 h -9.91 v 3.9999996 h -10.70539 v -3.9999996 h -9.910005 v 3.9999996 h -10.70538 v -3.9999996 h -9.91 v 3.9999996 h -10.70539 v -3.9999996 h -9.90999 v 3.9999996 h -10.70539 v -3.9999996 h -9.91 v 3.9999996 h -10.70538 v -3.9999996 h -9.91 v 3.9999996 h -10.70539 v -3.9999996 h -9.91 v 3.9999996 h -10.70538 v -3.9999996 h -9.91 v 3.9999996 h -10.70539 v -3.9999996 h -9.91 v 3.9999996 h -10.70538 v 0 h -9.91 v 0 h -10.70539 v 0 h -9.91 v 0 h -10.66038"
       inkscape:connector-curvature="0"
       sodipodi:nodetypes="cccccccccccccccccccccccccccccccccccccccccccccccccc" />
    <path
       id="path1058"
       inkscape:label="part"
       style="fill:none;stroke:#000000;stroke-width:1"
       d="m -302.33889,-6.7568694 v -16.0449996 0 -9.909999 0 -16.09 0 -9.910001 0 -12.044999"
       inkscape:connector-curvature="0" />
    <path
       id="path1060"
       inkscape:label="part"
       style="stroke:#000000;stroke-width:1;fill:none"
       d="M 262.0,266.0 L 272.579999999,266.0 L 272.579999999,262.0 L 282.670000001,262.0 L 282.670000001,266.0 L 293.204999999,266.0 L 293.204999999,262.0 L 303.295000001,262.0 L 303.295000001,266.0 L 313.829999999,266.0 L 313.829999999,262.0 L 323.920000001,262.0 L 323.920000001,266.0 L 334.454999999,266.0 L 334.454999999,262.0 L 344.545000001,262.0 L 344.545000001,266.0 L 355.079999999,266.0 L 355.079999999,262.0 L 365.170000001,262.0 L 365.170000001,266.0 L 375.704999999,266.0 L 375.704999999,262.0 L 385.795000001,262.0 L 385.795000001,266.0 L 396.329999999,266.0 L 396.329999999,262.0 L 406.420000001,262.0 L 406.420000001,266.0 L 416.954999999,266.0 L 416.954999999,262.0 L 427.045000001,262.0 L 427.045000001,266.0 L 437.579999999,266.0 L 437.579999999,262.0 L 447.670000001,262.0 L 447.670000001,266.0 L 458.204999999,266.0 L 458.204999999,262.0 L 468.295000001,262.0 L 468.295000001,266.0 L 478.829999999,266.0 L 478.829999999,262.0 L 488.920000001,262.0 L 488.920000001,266.0 L 495.5,266.0 " />
    <path
       id="path1062"
       inkscape:label="part"
       style="stroke:#000000;stroke-width:1;fill:none"
       d="M 495.5,266.0 L 495.5,277.954999999 L 499.5,277.954999999 L 499.5,288.045000001 L 495.5,288.045000001 L 495.5,303.954999999 L 499.5,303.954999999 L 499.5,314.045000001 L 495.5,314.045000001 L 495.5,330.0 " />
    <path
       id="path1064"
       inkscape:label="part"
       style="stroke:#000000;stroke-width:1;fill:none"
       d="M 495.5,330.0 L 488.829999999,330.0 L 488.829999999,326.0 L 478.920000001,326.0 L 478.920000001,330.0 L 468.204999999,330.0 L 468.204999999,326.0 L 458.295000001,326.0 L 458.295000001,330.0 L 447.579999999,330.0 L 447.579999999,326.0 L 437.670000001,326.0 L 437.670000001,330.0 L 426.954999999,330.0 L 426.954999999,326.0 L 417.045000001,326.0 L 417.045000001,330.0 L 406.329999999,330.0 L 406.329999999,326.0 L 396.420000001,326.0 L 396.420000001,330.0 L 385.704999999,330.0 L 385.704999999,326.0 L 375.795000001,326.0 L 375.795000001,330.0 L 365.079999999,330.0 L 365.079999999,326.0 L 355.170000001,326.0 L 355.170000001,330.0 L 344.454999999,330.0 L 344.454999999,326.0 L 334.545000001,326.0 L 334.545000001,330.0 L 323.829999999,330.0 L 323.829999999,326.0 L 313.920000001,326.0 L 313.920000001,330.0 L 303.204999999,330.0 L 303.204999999,326.0 L 293.295000001,326.0 L 293.295000001,330.0 L 282.579999999,330.0 L 282.579999999,326.0 L 272.670000001,326.0 L 272.670000001,330.0 L 262.0,330.0 " />
    <path
       id="path1066"
       inkscape:label="part"
       style="stroke:#000000;stroke-width:1;fill:none"
       d="M 262.0,330.0 L 262.0,313.954999999 L 266.0,313.954999999 L 266.0,304.045000001 L 262.0,304.045000001 L 262.0,287.954999999 L 266.0,287.954999999 L 266.0,278.045000001 L 262.0,278.045000001 L 262.0,266.0 " />
    <path
       id="path1068"
       inkscape:label="part"
       style="fill:none;stroke:#000000;stroke-width:1"
       d="m -252.20006,503.61165 h 10.66038 v 4 h 9.91 v -4 h 10.70538 v 4 h 9.91 v -4 h 10.70539 v 4 h 9.91 v -4 h 10.70538 v 4 h 9.91 v -4 h 10.70539 v 4 h 9.91 v -4 h 10.70538 v 4 h 9.91 v -4 h 10.70539 v 4 h 9.91 v -4 h 10.705377 v 4 h 9.91 v -4 h 10.70539 v 4 h 9.91 v -4 h 10.70538 v 4 h 9.91 v -4 h 10.70539 v 0 h 9.91 v 0 h 10.70538 v 0 h 9.9099998 v 0 h 6.66039"
       inkscape:connector-curvature="0"
       sodipodi:nodetypes="cccccccccccccccccccccccccccccccccccccccccccccccccc" />
    <path
       id="path1070"
       inkscape:label="part"
       style="fill:none;stroke:#000000;stroke-width:1"
       d="m 1.7999368,503.61165 v 15.955 0 10.09 0 15.91 0 10.09 0 11.955"
       inkscape:connector-curvature="0" />
    <path
       id="path1072"
       inkscape:label="part"
       style="fill:none;stroke:#000000;stroke-width:1"
       d="m 1.7999368,567.61165 -0.00305,4.00419 -6.5673363,-0.004 H -14.860453 v 0 h -10.52538 v 0 h -10.09 v 0 h -10.52539 v 0 h -10.09 v -4 h -10.52538 v 4 h -10.09 v -4 h -10.52539 v 4 h -10.09 v -4 h -10.525377 v 4 h -10.09 v -4 h -10.52539 v 4 h -10.09 v -4 h -10.52538 v 4 h -10.09 v -4 h -10.52539 v 4 h -10.09 v -4 h -10.52538 v 4 h -10.09 v -4 h -10.52539 v 4 h -10.09 v -4 h -10.52538 v 4 h -10.09 v -4 h -10.57038"
       inkscape:connector-curvature="0"
       sodipodi:nodetypes="cccccccccccccccccccccccccccccccccccccccccccccccccc" />
    <path
       id="path1074"
       inkscape:label="part"
       style="fill:none;stroke:#000000;stroke-width:1"
       d="m -252.20006,567.61165 v -12.045 h 4 v -9.91 h -4 v -16.09 h 4 v -9.91 h -4 v -16.045"
       inkscape:connector-curvature="0" />
    <path
       id="path1086"
       inkscape:label="part"
       style="fill:none;stroke:#000000;stroke-width:1"
       d="m -250.52174,1.5194428 v -4 h 10.09 v 4 h 10.52539 v -4 h 10.09 v 4 h 10.52538 v -4 h 10.09 v 4 h 10.52539 v -4 l 10.09,0 v 4 h 10.52538 v -4 h 10.09 v 4 h 10.52539 v -4 h 10.09 v 4 h 10.52538 v -4 h 10.09 v 4 h 10.52538 v -4 h 10.089998 v 4 h 10.52539 v -4 h 10.09 v 4 h 10.52538 v -4 h 10.09 v 4 h 10.57039"
       inkscape:connector-curvature="0"
       sodipodi:nodetypes="ccccccccccccccccccccccccccccccccccccccccc" />
    <path
       id="path1088"
       inkscape:label="part"
       style="fill:none;stroke:#000000;stroke-width:1"
       d="m -44.322892,1.5194428 v 6.67 h -4 v 9.9100002 h 4 v 10.715 h -4 v 9.91 h 4 v 10.715 h -4 v 9.91 h 4 v 10.715 h -4 v 9.91 h 4 v 10.715 h -4 v 9.909997 h 4 v 10.715 h -4 l 0,9.91 h 4 v 10.715 h -4 v 9.91 h 4 v 10.715 h -4 v 9.91 h 4 v 10.715 h -4 v 9.91 h 4 v 10.715 h -4 v 9.91 h 4 v 10.715 h -4 v 9.91 h 4 v 10.67"
       inkscape:connector-curvature="0" />
    <path
       id="path1090"
       inkscape:label="part"
       style="fill:none;stroke:#000000;stroke-width:1"
       d="m -44.322892,235.01944 h -10.66039 v -4 h -9.91 v 4 h -10.70538 v -4 h -9.91 v 4 h -10.70539 v -4 h -9.909998 v 4 h -10.70538 v -4 h -9.91 v 4 h -10.70538 v -4 l -9.91,0 v 4 h -10.70539 v -4 h -9.91 v 4 h -10.70538 v -4 h -9.91 v 4 h -10.70539 v -4 h -9.91 v 4 h -10.70538 v -4 h -9.91 v 4 h -10.70539 v -4 h -9.91 l 0,-230.09305718"
       inkscape:connector-curvature="0"
       sodipodi:nodetypes="ccccccccccccccccccccccccccccccccccccccccc" />
    <path
       style="fill:none;stroke:#000000;stroke-width:3.77952766;stroke-miterlimit:4;stroke-dasharray:none;stroke-opacity:1"
       d="M 1.890625 17.007812 L 1.890625 961.89062 L 15.117188 961.89062 L 15.117188 58.582031 L 20.787109 58.582031 L 20.787109 961.89062 L 128.50391 961.89062 L 128.50391 58.582031 L 134.17383 58.582031 L 134.17383 961.89062 L 228.66211 961.89062 L 228.66211 17.007812 L 1.890625 17.007812 z "
       transform="scale(0.26458333)"
       id="rect1161" />
    <path
       inkscape:connector-curvature="0"
       style="fill:none;stroke:#000000;stroke-width:1;stroke-miterlimit:4;stroke-dasharray:none;stroke-opacity:1"
       d="M 132.3642,4.9564287 V 254.95667 h -3.49953 V 15.956269 H 127.3645 V 254.95667 H 98.864441 V 15.956269 h -1.50017 V 254.95667 H 72.364251 V 4.9564287 Z"
       id="rect1161-7" />
  </g>
  <g
     inkscape:label="newlayer"
     inkscape:groupmode="layer"
     id="g70" />
  <g
     id="g218"
     inkscape:groupmode="layer"
     inkscape:label="newlayer" />
  <g
     inkscape:label="newlayer"
     inkscape:groupmode="layer"
     id="g380" />
  <g
     id="g484"
     inkscape:groupmode="layer"
     inkscape:label="newlayer" />
  <g
     inkscape:label="newlayer"
     inkscape:groupmode="layer"
     id="g598" />
  <g
     id="g714"
     inkscape:groupmode="layer"
     inkscape:label="newlayer" />
  <g
     inkscape:label="newlayer"
     inkscape:groupmode="layer"
     id="g824" />
  <g
     id="g916"
     inkscape:groupmode="layer"
     inkscape:label="newlayer" />
  <g
     inkscape:label="newlayer"
     inkscape:groupmode="layer"
     id="g1002" />
  <g
     id="g1102"
     inkscape:groupmode="layer"
     inkscape:label="newlayer" />
</svg>
